<?xml version="1.0" encoding="UTF-8"?>
<svg width="40px" height="40px" viewBox="0 0 40 40" version="1.1" xmlns="http://www.w3.org/2000/svg" xmlns:xlink="http://www.w3.org/1999/xlink">
    <title>Group@2x</title>
    <g id="Symbols" stroke="none" stroke-width="1" fill="none" fill-rule="evenodd">
        <g id="Group">
            <circle id="*-/-Elements-/-Avatar-/-Pic" fill="#C0C8D9" cx="20" cy="20" r="20"></circle>
            <g transform="translate(8.000000, 8.000000)" id="ic-/-General-/-One-tone-/-3" stroke="#262A52" stroke-linecap="round" stroke-linejoin="round" stroke-width="1.5">
                <g id="Group-7" transform="translate(3.000000, 3.000000)">
                    <path d="M9,0 C13.971,0 18,4.03 18,9 C18,13.971 13.971,18 9,18 C4.03,18 0,13.971 0,9 C0,4.03 4.03,0 9,0 Z" id="Stroke-1"></path>
                    <path d="M14.3076,16.257 C13.9236,14.417 11.7046,13 8.9996,13 C6.2956,13 4.0776,14.417 3.6926,16.257" id="Stroke-3"></path>
                    <path d="M12,7 C12,8.657 10.657,10 9,10 C7.343,10 6,8.657 6,7 C6,5.343 7.343,4 9,4 C10.657,4 12,5.343 12,7 Z" id="Stroke-5"></path>
                </g>
            </g>
        </g>
    </g>
</svg>