<svg width="44" height="48" viewBox="0 0 44 48" fill="none" xmlns="http://www.w3.org/2000/svg">
<g filter="url(#filter0_d_6756_64561)">
<circle cx="21.4688" cy="15.4531" r="14.5" fill="url(#paint0_linear_6756_64561)" stroke="white"/>
</g>
<circle cx="21.468" cy="15.4531" r="13.7727" fill="url(#paint1_linear_6756_64561)" stroke="#290C54"/>
<g filter="url(#filter1_dd_6756_64561)">
<path d="M38.3778 11.7644C38.6994 12.1995 39.0824 12.6318 39.3195 13.1142C39.6477 13.7823 38.3646 14.435 37.9158 14.7668C37.5127 15.0648 36.4522 15.2601 35.8987 14.9851C35.8962 14.9838 35.8938 14.9826 35.8914 14.9814C34.748 14.4134 32.2755 16.3303 31.3338 17.0265C30.7469 18.3289 29.9894 19.4648 28.4997 19.7823C25.8595 20.3449 23.6856 18.8775 22.4684 16.4532C21.6781 14.8789 20.932 12.2613 21.7607 10.5583C22.4387 9.165 23.242 8.90317 24.4544 8.00691C24.6738 7.8447 24.8373 7.72963 25.0936 7.34429C25.1391 7.19887 25.1967 7.05591 25.2679 6.91601C25.5597 6.34225 26.0035 5.58575 26.5265 5.19918C27.6789 4.51236 28.6063 4.72538 29.651 5.17466C30.088 5.36257 30.4392 5.60403 30.962 6.12424C31.6243 6.78312 32.4809 6.75601 32.9093 6.49309C33.4954 6.02826 34.5207 5.8206 35.0373 5.67794C35.458 5.56179 36.6702 5.5494 36.9687 5.95315C37.1756 6.23306 37.0562 6.73207 37.0324 7.06494C36.9687 7.95317 37.1476 9.2734 37.3819 9.94928C37.6068 10.5982 37.9697 11.2124 38.3778 11.7644Z" fill="url(#paint2_linear_6756_64561)"/>
<path d="M33.6184 11.877C33.145 10.2966 32.4285 9.02785 32.4715 7.27019C32.4971 6.22312 34.2939 5.88322 35.0373 5.67794C35.458 5.56179 36.6702 5.5494 36.9687 5.95315C37.1756 6.23306 37.0562 6.73207 37.0324 7.06494C36.9687 7.95317 37.1476 9.2734 37.3819 9.94928C37.6068 10.5982 37.9697 11.2124 38.3778 11.7644C38.6994 12.1995 39.0824 12.6318 39.3195 13.1142C39.6477 13.7823 38.3646 14.435 37.9158 14.7668C37.4648 15.1002 36.1914 15.305 35.725 14.8667C35.508 14.6628 35.3451 14.4288 35.1686 14.1901M32.9686 6.45314C32.5647 6.75176 31.6565 6.81514 30.962 6.12424C30.4392 5.60403 30.088 5.36257 29.651 5.17466C28.6063 4.72538 27.6789 4.51236 26.5265 5.19918C26.0035 5.58575 25.5597 6.34225 25.2679 6.91601C24.9632 7.515 24.9072 8.17003 24.9855 8.83359C25.0446 9.3345 25.1337 9.82252 25.5015 10.1875C25.7892 10.473 26.0786 10.6519 26.5042 10.62C27.8284 10.521 29.1537 8.93409 29.651 7.90373M25.0936 7.34429C24.8373 7.72963 24.6738 7.8447 24.4544 8.00691C23.242 8.90317 22.4387 9.165 21.7607 10.5583C20.932 12.2613 21.6781 14.8789 22.4684 16.4532C23.6856 18.8775 25.8595 20.3449 28.4997 19.7823C30.2362 19.4122 30.9779 17.93 31.614 16.3684C32.1701 15.0033 31.9924 12.7933 31.2229 11.5162C30.7108 10.6662 29.9123 10.3394 28.9489 10.4597C28.2452 10.5475 26.0903 12.035 25.4065 11.8088M31.3338 17.0265C32.2776 16.3288 34.7586 14.4052 35.8987 14.9851" stroke="#270B50" stroke-miterlimit="16" stroke-linecap="round"/>
</g>
<g filter="url(#filter2_dd_6756_64561)">
<path d="M9.29665 25.9965C9.50851 26.4943 9.68661 27.0437 9.98274 27.4924C10.3928 28.1138 11.6141 27.3355 12.1308 27.1156C12.595 26.9181 13.3065 26.1008 13.3517 25.4836C13.3519 25.4808 13.3521 25.4781 13.3523 25.4754C13.4458 24.2005 16.3695 23.034 17.4537 22.5726C18.8809 22.7242 20.2513 22.6443 21.2882 21.518C23.1259 19.5218 22.9686 16.9019 21.4936 14.6246C20.5359 13.1458 18.6527 11.1777 16.7552 11.0324C15.2027 10.9135 14.5652 11.475 13.1694 12.0691C12.9168 12.1766 12.7336 12.2596 12.269 12.2862C12.1199 12.2519 11.9668 12.2294 11.8093 12.2201C11.1635 12.1821 10.2819 12.1829 9.67985 12.4392C8.49592 13.0874 8.20573 13.9962 8.05994 15.1258C7.99896 15.5983 8.02819 16.0238 8.21078 16.7385C8.44204 17.6437 7.98027 18.37 7.53361 18.6071C6.83155 18.8783 6.12727 19.659 5.7395 20.0331C5.42377 20.3377 4.79281 21.3786 4.98944 21.8406C5.12576 22.1609 5.61859 22.3101 5.91883 22.4578C6.71994 22.852 7.77074 23.6741 8.23567 24.2183C8.68201 24.7407 9.02778 25.3648 9.29665 25.9965Z" fill="url(#paint3_linear_6756_64561)"/>
<path d="M11.8292 21.9421C10.704 20.734 9.97279 19.4735 8.42999 18.6219C7.5109 18.1145 6.29751 19.4947 5.7395 20.0331C5.42377 20.3377 4.79281 21.3786 4.98944 21.8406C5.12576 22.1609 5.61859 22.3101 5.91883 22.4578C6.71994 22.852 7.77074 23.6741 8.23567 24.2183C8.68201 24.7407 9.02778 25.3648 9.29665 25.9965C9.50851 26.4943 9.68661 27.0437 9.98274 27.4924C10.3928 28.1138 11.6141 27.3355 12.1308 27.1156C12.65 26.8946 13.4788 25.8981 13.3382 25.2737C13.2728 24.9831 13.1537 24.7241 13.0374 24.4509M7.46869 18.6381C7.93376 18.4402 8.45328 17.6877 8.21078 16.7385C8.02819 16.0238 7.99896 15.5983 8.05994 15.1258C8.20573 13.9962 8.49592 13.0874 9.67985 12.4392C10.2819 12.1829 11.1635 12.1821 11.8093 12.2201C12.4835 12.2598 13.0789 12.5427 13.613 12.9458C14.0161 13.2502 14.3928 13.574 14.5204 14.0763C14.6202 14.4691 14.6269 14.8096 14.3816 15.1611C13.6184 16.2549 11.5673 16.5972 10.4213 16.5059M12.269 12.2862C12.7336 12.2596 12.9168 12.1766 13.1694 12.0691C14.5652 11.475 15.2027 10.9135 16.7552 11.0324C18.6527 11.1777 20.5359 13.1458 21.4936 14.6246C22.9686 16.9019 23.1259 19.5218 21.2882 21.518C20.0795 22.8309 18.4176 22.722 16.7409 22.4819C15.2752 22.2719 13.454 21.0009 12.7427 19.6904C12.2692 18.8182 12.395 17.9632 12.992 17.1918C13.4281 16.6284 15.8177 15.5191 15.9718 14.814M17.4537 22.5726C16.3672 23.035 13.4333 24.2055 13.3517 25.4836" stroke="#270B50" stroke-miterlimit="16" stroke-linecap="round"/>
</g>
<path d="M23.0737 21.6931C22.2055 23.3534 22.3085 25.1832 22.3085 26.8965" stroke="white" stroke-linecap="round"/>
<path d="M24.3672 22.5635C24.8686 23.8567 25.5875 25.6285 26.598 26.6391" stroke="white" stroke-linecap="round"/>
<path d="M25.6758 21.8215C26.1552 22.0044 26.6318 22.2921 26.9401 22.5635" stroke="white" stroke-linecap="round"/>
<path d="M19.4285 9.39294C19.3329 8.91226 19.1774 8.45177 19.0614 7.97762C18.8843 7.25366 18.7717 6.51712 18.6536 5.77834C18.5772 5.30038 18.5312 4.85619 18.5312 4.37354" stroke="white" stroke-linecap="round"/>
<path d="M20.5859 7.72156C20.5859 6.62398 20.8568 5.76152 21.321 4.84546" stroke="white" stroke-linecap="round"/>
<path d="M17.8726 9.15088C17.3159 8.67694 16.7935 8.16807 16.0708 7.85053C15.6701 7.67448 15.2823 7.62339 14.8438 7.54822" stroke="white" stroke-linecap="round"/>
<g filter="url(#filter3_d_6756_64561)">
<path d="M3.83203 40.1483H7.13822C8.33797 40.1483 9.19886 39.4523 9.19886 38.4449C9.19886 37.7488 8.77757 37.1627 8.0449 36.833C8.60356 36.5399 8.92411 36.0728 8.92411 35.4318C8.92411 34.5159 8.14564 33.8565 7.01916 33.8565H3.83203V40.1483ZM5.17832 36.3934V35.0105H6.6803C7.18401 35.0105 7.54119 35.3035 7.54119 35.6973C7.54119 36.1003 7.18401 36.3934 6.6803 36.3934H5.17832ZM5.17832 38.9944V37.4558H6.89094C7.43129 37.4558 7.81594 37.7763 7.81594 38.2251C7.81594 38.6738 7.43129 38.9944 6.89094 38.9944H5.17832Z" fill="white"/>
<path d="M15.2546 40.1483H16.7749L14.2105 33.8565H12.6994L10.135 40.1483H11.6462L12.0491 39.1592H14.8516L15.2546 40.1483ZM12.5162 38.0144L13.4504 35.7157L14.3845 38.0144H12.5162Z" fill="white"/>
<path d="M18.9964 40.1483H20.3519V35.0746H22.3118V33.8565H17.0365V35.0746H18.9964V40.1483Z" fill="white"/>
<path d="M25.3036 40.1483H26.659V35.0746H28.6189V33.8565H23.3437V35.0746H25.3036V40.1483Z" fill="white"/>
<path d="M31.2902 38.9303V33.8565H29.9347V40.1483H34.4223V38.9303H31.2902Z" fill="white"/>
<path d="M40.5958 35.0746V33.8565H35.751V40.1483H40.5958V38.9303H37.1065V37.5473H40.2661V36.3293H37.1065V35.0746H40.5958Z" fill="white"/>
</g>
<defs>
<filter id="filter0_d_6756_64561" x="4.46875" y="0.453125" width="34" height="34" filterUnits="userSpaceOnUse" color-interpolation-filters="sRGB">
<feFlood flood-opacity="0" result="BackgroundImageFix"/>
<feColorMatrix in="SourceAlpha" type="matrix" values="0 0 0 0 0 0 0 0 0 0 0 0 0 0 0 0 0 0 127 0" result="hardAlpha"/>
<feOffset dy="2"/>
<feGaussianBlur stdDeviation="1"/>
<feComposite in2="hardAlpha" operator="out"/>
<feColorMatrix type="matrix" values="0 0 0 0 0 0 0 0 0 0 0 0 0 0 0 0 0 0 0.71 0"/>
<feBlend mode="normal" in2="BackgroundImageFix" result="effect1_dropShadow_6756_64561"/>
<feBlend mode="normal" in="SourceGraphic" in2="effect1_dropShadow_6756_64561" result="shape"/>
</filter>
<filter id="filter1_dd_6756_64561" x="14.4258" y="0.473999" width="31.1133" height="30.373" filterUnits="userSpaceOnUse" color-interpolation-filters="sRGB">
<feFlood flood-opacity="0" result="BackgroundImageFix"/>
<feColorMatrix in="SourceAlpha" type="matrix" values="0 0 0 0 0 0 0 0 0 0 0 0 0 0 0 0 0 0 127 0" result="hardAlpha"/>
<feOffset dy="4"/>
<feGaussianBlur stdDeviation="2"/>
<feComposite in2="hardAlpha" operator="out"/>
<feColorMatrix type="matrix" values="0 0 0 0 0 0 0 0 0 0 0 0 0 0 0 0 0 0 0.25 0"/>
<feBlend mode="normal" in2="BackgroundImageFix" result="effect1_dropShadow_6756_64561"/>
<feColorMatrix in="SourceAlpha" type="matrix" values="0 0 0 0 0 0 0 0 0 0 0 0 0 0 0 0 0 0 127 0" result="hardAlpha"/>
<feOffset dy="1"/>
<feComposite in2="hardAlpha" operator="out"/>
<feColorMatrix type="matrix" values="0 0 0 0 0 0 0 0 0 0 0 0 0 0 0 0 0 0 0.25 0"/>
<feBlend mode="normal" in2="effect1_dropShadow_6756_64561" result="effect2_dropShadow_6756_64561"/>
<feBlend mode="normal" in="SourceGraphic" in2="effect2_dropShadow_6756_64561" result="shape"/>
</filter>
<filter id="filter2_dd_6756_64561" x="-1.67969" y="8.47064" width="30.3633" height="28.4432" filterUnits="userSpaceOnUse" color-interpolation-filters="sRGB">
<feFlood flood-opacity="0" result="BackgroundImageFix"/>
<feColorMatrix in="SourceAlpha" type="matrix" values="0 0 0 0 0 0 0 0 0 0 0 0 0 0 0 0 0 0 127 0" result="hardAlpha"/>
<feOffset dy="4"/>
<feGaussianBlur stdDeviation="2"/>
<feComposite in2="hardAlpha" operator="out"/>
<feColorMatrix type="matrix" values="0 0 0 0 0 0 0 0 0 0 0 0 0 0 0 0 0 0 0.25 0"/>
<feBlend mode="normal" in2="BackgroundImageFix" result="effect1_dropShadow_6756_64561"/>
<feColorMatrix in="SourceAlpha" type="matrix" values="0 0 0 0 0 0 0 0 0 0 0 0 0 0 0 0 0 0 127 0" result="hardAlpha"/>
<feOffset dy="1"/>
<feComposite in2="hardAlpha" operator="out"/>
<feColorMatrix type="matrix" values="0 0 0 0 0 0 0 0 0 0 0 0 0 0 0 0 0 0 0.25 0"/>
<feBlend mode="normal" in2="effect1_dropShadow_6756_64561" result="effect2_dropShadow_6756_64561"/>
<feBlend mode="normal" in="SourceGraphic" in2="effect2_dropShadow_6756_64561" result="shape"/>
</filter>
<filter id="filter3_d_6756_64561" x="1.83203" y="33.8565" width="40.7656" height="10.2918" filterUnits="userSpaceOnUse" color-interpolation-filters="sRGB">
<feFlood flood-opacity="0" result="BackgroundImageFix"/>
<feColorMatrix in="SourceAlpha" type="matrix" values="0 0 0 0 0 0 0 0 0 0 0 0 0 0 0 0 0 0 127 0" result="hardAlpha"/>
<feOffset dy="2"/>
<feGaussianBlur stdDeviation="1"/>
<feComposite in2="hardAlpha" operator="out"/>
<feColorMatrix type="matrix" values="0 0 0 0 0 0 0 0 0 0 0 0 0 0 0 0 0 0 0.71 0"/>
<feBlend mode="normal" in2="BackgroundImageFix" result="effect1_dropShadow_6756_64561"/>
<feBlend mode="normal" in="SourceGraphic" in2="effect1_dropShadow_6756_64561" result="shape"/>
</filter>
<linearGradient id="paint0_linear_6756_64561" x1="36.4688" y1="0.453125" x2="6.46875" y2="0.453125" gradientUnits="userSpaceOnUse">
<stop stop-color="#FF00AC"/>
<stop offset="1" stop-color="#9900D9"/>
</linearGradient>
<linearGradient id="paint1_linear_6756_64561" x1="35.7407" y1="1.18042" x2="7.19531" y2="1.18042" gradientUnits="userSpaceOnUse">
<stop stop-color="#FF00AC"/>
<stop offset="1" stop-color="#9900D9"/>
</linearGradient>
<linearGradient id="paint2_linear_6756_64561" x1="30.3855" y1="4.758" x2="36.9813" y2="19.9023" gradientUnits="userSpaceOnUse">
<stop offset="0.557292" stop-color="white"/>
<stop offset="0.838542" stop-color="#717171"/>
</linearGradient>
<linearGradient id="paint3_linear_6756_64561" x1="7.32363" y1="15.5496" x2="17.0167" y2="28.9311" gradientUnits="userSpaceOnUse">
<stop offset="0.557292" stop-color="white"/>
<stop offset="0.838542" stop-color="#717171"/>
</linearGradient>
</defs>
</svg>
