<svg width="45" height="47" viewBox="0 0 45 47" fill="none" xmlns="http://www.w3.org/2000/svg">
<g filter="url(#filter0_d_4285_12388)">
<circle cx="22" cy="15" r="14.5" fill="url(#paint0_linear_4285_12388)" stroke="white"/>
</g>
<circle cx="22" cy="15" r="13.7727" fill="url(#paint1_linear_4285_12388)" stroke="#290C54"/>
<g filter="url(#filter1_dd_4285_12388)">
<path d="M38.9093 11.3114C39.2309 11.7464 39.6139 12.1787 39.851 12.6611C40.1792 13.3292 38.8961 13.982 38.4473 14.3137C38.0441 14.6118 36.9837 14.807 36.4302 14.532C36.4277 14.5308 36.4253 14.5296 36.4229 14.5283C35.2795 13.9603 32.807 15.8772 31.8653 16.5734C31.2784 17.8758 30.5209 19.0117 29.0312 19.3292C26.391 19.8918 24.2171 18.4245 22.9999 16.0001C22.2096 14.4258 21.4635 11.8082 22.2922 10.1052C22.9702 8.71194 23.7735 8.45011 24.9859 7.55385C25.2053 7.39164 25.3688 7.27657 25.6251 6.89122C25.6706 6.74581 25.7282 6.60285 25.7993 6.46295C26.0912 5.88919 26.535 5.13268 27.0579 4.74611C28.2104 4.0593 29.1378 4.27232 30.1825 4.7216C30.6195 4.90951 30.9707 5.15097 31.4935 5.67118C32.1558 6.33006 33.0124 6.30295 33.4408 6.04002C34.0269 5.5752 35.0522 5.36753 35.5688 5.22488C35.9895 5.10872 37.2017 5.09634 37.5002 5.50008C37.7071 5.78 37.5877 6.279 37.5639 6.61188C37.5002 7.5001 37.6791 8.82033 37.9134 9.49622C38.1383 10.1451 38.5012 10.7593 38.9093 11.3114Z" fill="url(#paint2_linear_4285_12388)"/>
<path d="M34.1499 11.424C33.6765 9.84356 32.96 8.57478 33.003 6.81713C33.0286 5.77005 34.8254 5.43016 35.5688 5.22488C35.9895 5.10872 37.2017 5.09634 37.5002 5.50008C37.7071 5.78 37.5877 6.279 37.5639 6.61188C37.5002 7.5001 37.6791 8.82033 37.9134 9.49622C38.1383 10.1451 38.5012 10.7593 38.9093 11.3114C39.2309 11.7464 39.6139 12.1787 39.851 12.6611C40.1792 13.3292 38.8961 13.982 38.4473 14.3137C37.9963 14.6471 36.7229 14.8519 36.2565 14.4136C36.0395 14.2097 35.8766 13.9757 35.7001 13.737M33.5001 6.00007C33.0962 6.2987 32.188 6.36208 31.4935 5.67118C30.9707 5.15097 30.6195 4.90951 30.1825 4.7216C29.1378 4.27232 28.2104 4.0593 27.0579 4.74611C26.535 5.13268 26.0912 5.88919 25.7993 6.46295C25.4947 7.06194 25.4387 7.71697 25.517 8.38053C25.5761 8.88144 25.6652 9.36946 26.033 9.73448C26.3207 10.02 26.6101 10.1988 27.0357 10.167C28.3599 10.0679 29.6852 8.48103 30.1825 7.45067M25.6251 6.89122C25.3688 7.27657 25.2053 7.39164 24.9859 7.55385C23.7735 8.45011 22.9702 8.71193 22.2922 10.1052C21.4635 11.8082 22.2096 14.4258 22.9999 16.0001C24.2171 18.4245 26.391 19.8918 29.0312 19.3292C30.7677 18.9592 31.5093 17.477 32.1455 15.9153C32.7016 14.5502 32.5239 12.3402 31.7544 11.0632C31.2423 10.2131 30.4438 9.88632 29.4804 10.0066C28.7767 10.0944 26.6218 11.582 25.938 11.3557M31.8653 16.5734C32.8091 15.8757 35.2901 13.9521 36.4302 14.532" stroke="#270B50" stroke-miterlimit="16" stroke-linecap="round"/>
</g>
<g filter="url(#filter2_dd_4285_12388)">
<path d="M9.82815 25.5434C10.04 26.0411 10.2181 26.5906 10.5142 27.0393C10.9243 27.6607 12.1456 26.8824 12.6623 26.6625C13.1264 26.4649 13.838 25.6477 13.8832 25.0304C13.8834 25.0277 13.8836 25.025 13.8838 25.0222C13.9773 23.7474 16.901 22.5809 17.9852 22.1195C19.4124 22.2711 20.7828 22.1911 21.8197 21.0648C23.6573 19.0687 23.5 16.4488 22.0251 14.1715C21.0674 12.6927 19.1842 10.7246 17.2867 10.5793C15.7342 10.4604 15.0967 11.0219 13.7009 11.616C13.4483 11.7235 13.2651 11.8065 12.8005 11.833C12.6514 11.7988 12.4983 11.7763 12.3408 11.767C11.695 11.729 10.8134 11.7298 10.2113 11.986C9.02741 12.6343 8.73723 13.5431 8.59143 14.6727C8.53045 15.1452 8.55968 15.5707 8.74227 16.2854C8.97354 17.1906 8.51176 17.9169 8.06511 18.1539C7.36304 18.4252 6.65877 19.2058 6.271 19.58C5.95526 19.8846 5.32431 20.9255 5.52094 21.3875C5.65726 21.7078 6.15009 21.857 6.45032 22.0047C7.25144 22.3989 8.30224 23.221 8.76716 23.7652C9.21351 24.2876 9.55927 24.9116 9.82815 25.5434Z" fill="url(#paint3_linear_4285_12388)"/>
<path d="M12.3607 21.489C11.2355 20.2809 10.5043 19.0204 8.96148 18.1688C8.0424 17.6614 6.829 19.0416 6.271 19.58C5.95526 19.8846 5.32431 20.9255 5.52094 21.3875C5.65726 21.7078 6.15009 21.857 6.45032 22.0047C7.25144 22.3989 8.30224 23.221 8.76716 23.7652C9.21351 24.2876 9.55927 24.9116 9.82815 25.5434C10.04 26.0411 10.2181 26.5906 10.5142 27.0393C10.9243 27.6607 12.1456 26.8824 12.6623 26.6625C13.1815 26.4415 14.0103 25.445 13.8697 24.8206C13.8043 24.53 13.6851 24.2709 13.5689 23.9978M8.00019 18.185C8.46525 17.9871 8.98477 17.2346 8.74227 16.2854C8.55968 15.5707 8.53045 15.1452 8.59143 14.6727C8.73723 13.5431 9.02741 12.6343 10.2113 11.986C10.8134 11.7298 11.695 11.729 12.3408 11.767C13.015 11.8067 13.6104 12.0895 14.1445 12.4927C14.5476 12.7971 14.9243 13.1208 15.0519 13.6231C15.1517 14.016 15.1584 14.3565 14.9131 14.708C14.1499 15.8018 12.0987 16.1441 10.9527 16.0527M12.8005 11.833C13.2651 11.8065 13.4483 11.7235 13.7009 11.616C15.0967 11.0219 15.7342 10.4604 17.2867 10.5793C19.1842 10.7246 21.0674 12.6927 22.0251 14.1715C23.5 16.4488 23.6573 19.0687 21.8197 21.0648C20.611 22.3778 18.9491 22.2689 17.2724 22.0287C15.8067 21.8188 13.9855 20.5477 13.2742 19.2373C12.8007 18.3651 12.9265 17.5101 13.5235 16.7386C13.9595 16.1752 16.3492 15.066 16.5033 14.3609M17.9852 22.1195C16.8987 22.5819 13.9648 23.7524 13.8832 25.0304" stroke="#270B50" stroke-miterlimit="16" stroke-linecap="round"/>
</g>
<path d="M23.6062 21.24C22.738 22.9003 22.8409 24.7301 22.8409 26.4434" stroke="white" stroke-linecap="round"/>
<path d="M24.8982 22.1104C25.3997 23.4036 26.1185 25.1754 27.129 26.1859" stroke="white" stroke-linecap="round"/>
<path d="M26.208 21.3684C26.6874 21.5513 27.164 21.839 27.4724 22.1104" stroke="white" stroke-linecap="round"/>
<path d="M19.9609 8.93982C19.8654 8.45913 19.7099 7.99864 19.5939 7.52449C19.4168 6.80053 19.3041 6.06399 19.1861 5.32521C19.1097 4.84726 19.0637 4.40307 19.0637 3.92041" stroke="white" stroke-linecap="round"/>
<path d="M21.1172 7.26843C21.1172 6.17086 21.388 5.30839 21.8523 4.39233" stroke="white" stroke-linecap="round"/>
<path d="M18.4031 8.69775C17.8465 8.22381 17.3241 7.71495 16.6013 7.3974C16.2006 7.22135 15.8129 7.17027 15.3743 7.09509" stroke="white" stroke-linecap="round"/>
<g filter="url(#filter3_d_4285_12388)">
<path d="M4.36157 39.6953H7.66776C8.86751 39.6953 9.7284 38.9992 9.7284 37.9918C9.7284 37.2958 9.30712 36.7096 8.57444 36.3799C9.13311 36.0869 9.45365 35.6198 9.45365 34.9787C9.45365 34.0628 8.67518 33.4034 7.5487 33.4034H4.36157V39.6953ZM5.70786 35.9403V34.5574H7.20984C7.71355 34.5574 8.07073 34.8505 8.07073 35.2443C8.07073 35.6473 7.71355 35.9403 7.20984 35.9403H5.70786ZM5.70786 38.5413V37.0027H7.42048C7.96083 37.0027 8.34548 37.3232 8.34548 37.772C8.34548 38.2208 7.96083 38.5413 7.42048 38.5413H5.70786Z" fill="white"/>
<path d="M15.7841 39.6953H17.3044L14.7401 33.4034H13.2289L10.6646 39.6953H12.1757L12.5787 38.7062H15.3811L15.7841 39.6953ZM13.0458 37.5614L13.9799 35.2626L14.9141 37.5614H13.0458Z" fill="white"/>
<path d="M19.526 39.6953H20.8814V34.6215H22.8413V33.4034H17.5661V34.6215H19.526V39.6953Z" fill="white"/>
<path d="M25.8331 39.6953H27.1886V34.6215H29.1485V33.4034H23.8732V34.6215H25.8331V39.6953Z" fill="white"/>
<path d="M31.8197 38.4772V33.4034H30.4643V39.6953H34.9519V38.4772H31.8197Z" fill="white"/>
<path d="M41.1254 34.6215V33.4034H36.2806V39.6953H41.1254V38.4772H37.636V37.0943H40.7957V35.8762H37.636V34.6215H41.1254Z" fill="white"/>
</g>
<defs>
<filter id="filter0_d_4285_12388" x="5" y="0" width="34" height="34" filterUnits="userSpaceOnUse" color-interpolation-filters="sRGB">
<feFlood flood-opacity="0" result="BackgroundImageFix"/>
<feColorMatrix in="SourceAlpha" type="matrix" values="0 0 0 0 0 0 0 0 0 0 0 0 0 0 0 0 0 0 127 0" result="hardAlpha"/>
<feOffset dy="2"/>
<feGaussianBlur stdDeviation="1"/>
<feComposite in2="hardAlpha" operator="out"/>
<feColorMatrix type="matrix" values="0 0 0 0 0 0 0 0 0 0 0 0 0 0 0 0 0 0 0.71 0"/>
<feBlend mode="normal" in2="BackgroundImageFix" result="effect1_dropShadow_4285_12388"/>
<feBlend mode="normal" in="SourceGraphic" in2="effect1_dropShadow_4285_12388" result="shape"/>
</filter>
<filter id="filter1_dd_4285_12388" x="14.959" y="0.020874" width="31.1108" height="30.3729" filterUnits="userSpaceOnUse" color-interpolation-filters="sRGB">
<feFlood flood-opacity="0" result="BackgroundImageFix"/>
<feColorMatrix in="SourceAlpha" type="matrix" values="0 0 0 0 0 0 0 0 0 0 0 0 0 0 0 0 0 0 127 0" result="hardAlpha"/>
<feOffset dy="4"/>
<feGaussianBlur stdDeviation="2"/>
<feComposite in2="hardAlpha" operator="out"/>
<feColorMatrix type="matrix" values="0 0 0 0 0 0 0 0 0 0 0 0 0 0 0 0 0 0 0.25 0"/>
<feBlend mode="normal" in2="BackgroundImageFix" result="effect1_dropShadow_4285_12388"/>
<feColorMatrix in="SourceAlpha" type="matrix" values="0 0 0 0 0 0 0 0 0 0 0 0 0 0 0 0 0 0 127 0" result="hardAlpha"/>
<feOffset dy="1"/>
<feComposite in2="hardAlpha" operator="out"/>
<feColorMatrix type="matrix" values="0 0 0 0 0 0 0 0 0 0 0 0 0 0 0 0 0 0 0.25 0"/>
<feBlend mode="normal" in2="effect1_dropShadow_4285_12388" result="effect2_dropShadow_4285_12388"/>
<feBlend mode="normal" in="SourceGraphic" in2="effect2_dropShadow_4285_12388" result="shape"/>
</filter>
<filter id="filter2_dd_4285_12388" x="-1.14746" y="8.01746" width="30.3618" height="28.4432" filterUnits="userSpaceOnUse" color-interpolation-filters="sRGB">
<feFlood flood-opacity="0" result="BackgroundImageFix"/>
<feColorMatrix in="SourceAlpha" type="matrix" values="0 0 0 0 0 0 0 0 0 0 0 0 0 0 0 0 0 0 127 0" result="hardAlpha"/>
<feOffset dy="4"/>
<feGaussianBlur stdDeviation="2"/>
<feComposite in2="hardAlpha" operator="out"/>
<feColorMatrix type="matrix" values="0 0 0 0 0 0 0 0 0 0 0 0 0 0 0 0 0 0 0.25 0"/>
<feBlend mode="normal" in2="BackgroundImageFix" result="effect1_dropShadow_4285_12388"/>
<feColorMatrix in="SourceAlpha" type="matrix" values="0 0 0 0 0 0 0 0 0 0 0 0 0 0 0 0 0 0 127 0" result="hardAlpha"/>
<feOffset dy="1"/>
<feComposite in2="hardAlpha" operator="out"/>
<feColorMatrix type="matrix" values="0 0 0 0 0 0 0 0 0 0 0 0 0 0 0 0 0 0 0.25 0"/>
<feBlend mode="normal" in2="effect1_dropShadow_4285_12388" result="effect2_dropShadow_4285_12388"/>
<feBlend mode="normal" in="SourceGraphic" in2="effect2_dropShadow_4285_12388" result="shape"/>
</filter>
<filter id="filter3_d_4285_12388" x="2.36157" y="33.4034" width="40.7639" height="10.2919" filterUnits="userSpaceOnUse" color-interpolation-filters="sRGB">
<feFlood flood-opacity="0" result="BackgroundImageFix"/>
<feColorMatrix in="SourceAlpha" type="matrix" values="0 0 0 0 0 0 0 0 0 0 0 0 0 0 0 0 0 0 127 0" result="hardAlpha"/>
<feOffset dy="2"/>
<feGaussianBlur stdDeviation="1"/>
<feComposite in2="hardAlpha" operator="out"/>
<feColorMatrix type="matrix" values="0 0 0 0 0 0 0 0 0 0 0 0 0 0 0 0 0 0 0.71 0"/>
<feBlend mode="normal" in2="BackgroundImageFix" result="effect1_dropShadow_4285_12388"/>
<feBlend mode="normal" in="SourceGraphic" in2="effect1_dropShadow_4285_12388" result="shape"/>
</filter>
<linearGradient id="paint0_linear_4285_12388" x1="37" y1="0" x2="7" y2="0" gradientUnits="userSpaceOnUse">
<stop stop-color="#FF00AC"/>
<stop offset="1" stop-color="#9900D9"/>
</linearGradient>
<linearGradient id="paint1_linear_4285_12388" x1="36.2727" y1="0.727295" x2="7.72729" y2="0.727295" gradientUnits="userSpaceOnUse">
<stop stop-color="#FF00AC"/>
<stop offset="1" stop-color="#9900D9"/>
</linearGradient>
<linearGradient id="paint2_linear_4285_12388" x1="30.917" y1="4.30493" x2="37.5127" y2="19.4492" gradientUnits="userSpaceOnUse">
<stop offset="0.557292" stop-color="white"/>
<stop offset="0.838542" stop-color="#717171"/>
</linearGradient>
<linearGradient id="paint3_linear_4285_12388" x1="7.85512" y1="15.0965" x2="17.5482" y2="28.478" gradientUnits="userSpaceOnUse">
<stop offset="0.557292" stop-color="white"/>
<stop offset="0.838542" stop-color="#717171"/>
</linearGradient>
</defs>
</svg>
