<svg width="37" height="34" viewBox="0 0 37 34" fill="none" xmlns="http://www.w3.org/2000/svg">
<rect x="0.691406" y="0.258789" width="17.2838" height="33.1436" rx="1.75895" fill="#663DA2"/>
<rect x="18.7188" y="0.258789" width="17.2838" height="33.1436" rx="1.75895" fill="#663DA2"/>
<g filter="url(#filter0_d_10303_74317)">
<circle cx="19.0078" cy="17.1426" r="13.2539" fill="white"/>
</g>
<path fill-rule="evenodd" clip-rule="evenodd" d="M26.5914 14.6878C27.2837 14.6878 27.8501 15.2542 27.8501 15.9465C27.8501 16.5381 27.4473 17.029 26.8935 17.1674C27.1956 17.394 27.3844 17.759 27.3844 18.1618C27.3844 18.7534 26.9816 19.2443 26.4277 19.3827C26.7298 19.6093 26.9186 19.9743 26.9186 20.3771C26.9186 20.9687 26.5159 21.4596 25.962 21.5981C26.2641 21.8246 26.4529 22.1896 26.4529 22.5924C26.4529 23.2847 25.8865 23.8511 25.1942 23.8511H17.277C16.6351 23.8511 16.119 23.3728 16.0309 22.7686H15.0491V23.2344C15.0491 23.5742 14.8855 23.8637 14.6967 23.8637H11.9149C11.7261 23.8637 11.5625 23.5868 11.5625 23.2344V14.9018C11.5625 14.5619 11.7261 14.2724 11.9149 14.2724H14.6967C14.8855 14.2724 15.0491 14.5493 15.0491 14.9018V15.7829H15.7917L18.9259 11.4529V9.42642C18.9259 8.73414 19.4923 8.16772 20.1846 8.16772C21.5188 8.16772 22.1482 11.8431 21.8587 12.8879C21.7454 13.3032 21.4811 13.9829 21.1916 14.6878H26.5788H26.5914Z" fill="black"/>
<path d="M15.0477 15.7827H15.7904L16.0169 22.7937H15.0352V15.7827H15.0477Z" fill="white"/>
<path d="M21.8721 12.8879C22.1616 11.8431 21.5196 8.16772 20.1854 8.16772C18.8512 8.16772 20.8273 9.75369 21.0665 10.9998C21.5322 13.4794 19.1784 13.5172 20.4371 14.3479C21.356 14.9647 21.2805 14.9773 21.8721 12.8879Z" fill="black" fill-opacity="0.38"/>
<defs>
<filter id="filter0_d_10303_74317" x="4.28125" y="3.88867" width="29.4531" height="29.4531" filterUnits="userSpaceOnUse" color-interpolation-filters="sRGB">
<feFlood flood-opacity="0" result="BackgroundImageFix"/>
<feColorMatrix in="SourceAlpha" type="matrix" values="0 0 0 0 0 0 0 0 0 0 0 0 0 0 0 0 0 0 127 0" result="hardAlpha"/>
<feOffset dy="1.47266"/>
<feGaussianBlur stdDeviation="0.736328"/>
<feComposite in2="hardAlpha" operator="out"/>
<feColorMatrix type="matrix" values="0 0 0 0 0 0 0 0 0 0 0 0 0 0 0 0 0 0 0.25 0"/>
<feBlend mode="normal" in2="BackgroundImageFix" result="effect1_dropShadow_10303_74317"/>
<feBlend mode="normal" in="SourceGraphic" in2="effect1_dropShadow_10303_74317" result="shape"/>
</filter>
</defs>
</svg>
