<svg width="20" height="20" viewBox="0 0 20 20" fill="none" xmlns="http://www.w3.org/2000/svg">
<path d="M8.29785 15.2861V15.5903C8.29785 16.6444 9.15285 17.4994 10.2079 17.4994V17.4994C11.262 17.4994 12.117 16.6444 12.117 15.5903V15.2861" stroke="white" stroke-width="1.5" stroke-linecap="round" stroke-linejoin="round"/>
<path d="M11.7355 4.7925V4.0275C11.7355 3.18333 11.0514 2.5 10.208 2.5V2.5C9.36385 2.5 8.67969 3.18333 8.67969 4.0275V4.7925" stroke="white" stroke-width="1.5" stroke-linecap="round" stroke-linejoin="round"/>
<path fill-rule="evenodd" clip-rule="evenodd" d="M5.6765 8.48917V8.48917C5.6765 6.40333 7.36734 4.71333 9.45234 4.71333H10.9632C13.0482 4.71333 14.739 6.40333 14.739 8.48917V8.48917V10.82C14.739 11.2617 14.9148 11.6858 15.2273 11.9983L15.7615 12.5325C16.074 12.845 16.2498 13.2683 16.2498 13.7108V13.7108C16.2498 14.5808 15.544 15.2858 14.674 15.2858H5.7415C4.8715 15.2858 4.1665 14.5808 4.1665 13.7108V13.7108C4.1665 13.2683 4.3415 12.845 4.654 12.5325L5.18817 11.9983C5.50067 11.6858 5.6765 11.2617 5.6765 10.82V8.48917Z" stroke="white" stroke-width="1.5" stroke-linecap="round" stroke-linejoin="round"/>
</svg>
