<?xml version="1.0" encoding="UTF-8"?>
<svg width="20px" height="20px" viewBox="0 0 20 20" version="1.1" xmlns="http://www.w3.org/2000/svg" xmlns:xlink="http://www.w3.org/1999/xlink">
    <title>2AF86118-DA64-4AFF-806A-26CA624804A9@2x</title>
    <g id="Profile:-Talent" stroke="none" stroke-width="1" fill="none" fill-rule="evenodd" stroke-linecap="round" stroke-linejoin="round">
        <g id="Talent-Profile:-*USER*-2-3" transform="translate(-29.000000, -143.000000)" stroke="#FFFFFF" stroke-width="1.25">
            <g id="User-Avatar&amp;Name" transform="translate(14.000000, 128.000000)">
                <g id="ic-/-General-/-One-tone--/-Photo-/-21" transform="translate(15.000000, 15.000000)">
                    <g id="Group-9" transform="translate(2.500000, 2.500000)">
                        <line x1="14.1666667" y1="0" x2="14.1666667" y2="3.33333333" id="Stroke-1"></line>
                        <g id="Group-8" transform="translate(0.000000, 1.250000)">
                            <line x1="12.5" y1="0.416666667" x2="15.8333333" y2="0.416666667" id="Stroke-2"></line>
                            <path d="M9.16666667,0.416666667 L1.66666667,0.416666667 C0.745833333,0.416666667 0,1.1625 0,2.08333333 L0,12.0833333 C0,13.0041667 0.745833333,13.75 1.66666667,13.75 L12.5,13.75 C13.4208333,13.75 14.1666667,13.0041667 14.1666667,12.0833333 L14.1666667,5.41666667" id="Stroke-4"></path>
                            <path d="M3.30558333,8.30558333 L4.55891667,6.31725 C4.84975,5.85641667 5.49725,5.79391667 5.87141667,6.19058333 L6.76641667,7.14225 L7.70558333,5.14725 C7.99475,4.53141667 8.85975,4.50308333 9.18891667,5.09891667 L10.9839167,8.34725 C11.2905833,8.90225 10.8889167,9.58308333 10.2539167,9.58308333 L4.01058333,9.58308333 C3.35475,9.58308333 2.95558333,8.86058333 3.30558333,8.30558333 Z" id="Stroke-6"></path>
                        </g>
                    </g>
                </g>
            </g>
        </g>
    </g>
</svg>