<svg width="62" height="50" viewBox="0 0 219 220" fill="none" xmlns="http://www.w3.org/2000/svg">
<g filter="url(#filter0_d_4374_12455)">
<path d="M108.083 207.789L102.365 205.807C72.544 195.412 33.5941 166.435 21.8669 118.227C9.13268 65.8929 13.7456 36.2338 13.9405 34.9669L15.7272 24.0843L26.3174 20.8358C26.7072 20.8358 36.063 17.9446 62.7009 11.0902C90.9306 3.97593 103.925 1.31213 104.607 1.18219L108.083 0.5L111.559 1.18219C112.079 1.18219 125.268 3.97593 153.465 11.2526C179.973 18.0745 189.459 20.9982 189.848 20.9982L200.439 24.2467L202.225 35.1293C202.42 36.3962 207.033 66.0553 194.299 118.389C182.572 166.435 143.622 195.412 113.67 205.807L108.083 207.789ZM48.0176 51.372C48.3594 71.1064 51.0198 90.7322 55.944 109.845C63.6105 141.389 87.6821 161.53 108.083 170.398C128.516 161.53 152.555 141.389 160.059 109.943C164.998 90.8333 167.648 71.2045 167.953 51.4694C162.431 49.9751 154.959 47.961 144.564 45.3297C125.592 40.2945 113.67 37.5332 108.083 36.2338C102.593 37.4358 90.5733 40.197 71.4395 45.1348C61.2066 47.8635 53.5401 49.8776 48.0176 51.372Z" fill="white"/>
<path d="M108.083 207.789L102.365 205.807C72.544 195.412 33.5941 166.435 21.8669 118.227C9.13268 65.8929 13.7456 36.2338 13.9405 34.9669L15.7272 24.0843L26.3174 20.8358C26.7072 20.8358 36.063 17.9446 62.7009 11.0902C90.9306 3.97593 103.925 1.31213 104.607 1.18219L108.083 0.5L111.559 1.18219C112.079 1.18219 125.268 3.97593 153.465 11.2526C179.973 18.0745 189.459 20.9982 189.848 20.9982L200.439 24.2467L202.225 35.1293C202.42 36.3962 207.033 66.0553 194.299 118.389C182.572 166.435 143.622 195.412 113.67 205.807L108.083 207.789ZM48.0176 51.372C48.3594 71.1064 51.0198 90.7322 55.944 109.845C63.6105 141.389 87.6821 161.53 108.083 170.398C128.516 161.53 152.555 141.389 160.059 109.943C164.998 90.8333 167.648 71.2045 167.953 51.4694C162.431 49.9751 154.959 47.961 144.564 45.3297C125.592 40.2945 113.67 37.5332 108.083 36.2338C102.593 37.4358 90.5733 40.197 71.4395 45.1348C61.2066 47.8635 53.5401 49.8776 48.0176 51.372Z" fill="url(#paint0_linear_4374_12455)" fill-opacity="0.42"/>
<path d="M108.083 207.789L102.365 205.807C72.544 195.412 33.5941 166.435 21.8669 118.227C9.13268 65.8929 13.7456 36.2338 13.9405 34.9669L15.7272 24.0843L26.3174 20.8358C26.7072 20.8358 36.063 17.9446 62.7009 11.0902C90.9306 3.97593 103.925 1.31213 104.607 1.18219L108.083 0.5L111.559 1.18219C112.079 1.18219 125.268 3.97593 153.465 11.2526C179.973 18.0745 189.459 20.9982 189.848 20.9982L200.439 24.2467L202.225 35.1293C202.42 36.3962 207.033 66.0553 194.299 118.389C182.572 166.435 143.622 195.412 113.67 205.807L108.083 207.789ZM48.0176 51.372C48.3594 71.1064 51.0198 90.7322 55.944 109.845C63.6105 141.389 87.6821 161.53 108.083 170.398C128.516 161.53 152.555 141.389 160.059 109.943C164.998 90.8333 167.648 71.2045 167.953 51.4694C162.431 49.9751 154.959 47.961 144.564 45.3297C125.592 40.2945 113.67 37.5332 108.083 36.2338C102.593 37.4358 90.5733 40.197 71.4395 45.1348C61.2066 47.8635 53.5401 49.8776 48.0176 51.372Z" fill="url(#paint1_linear_4374_12455)"/>
<path d="M23.9944 117.709L23.9944 117.709C11.3874 65.8981 15.9106 36.5585 16.1025 35.3134L16.1029 35.3109L17.6678 25.7793L26.8155 22.9733C26.8823 22.9601 26.9471 22.9453 27.0024 22.9322C27.1305 22.9019 27.2886 22.8609 27.4666 22.8132C27.8264 22.7168 28.3404 22.5736 29.0122 22.3851C29.2519 22.3179 29.513 22.2445 29.7964 22.1649C31.1103 21.7958 32.9021 21.2924 35.2492 20.6439C40.9534 19.0679 49.9378 16.6353 63.2414 13.212C91.45 6.10313 104.395 3.4514 105.017 3.33312L105.029 3.33076L108.083 2.73133L111.137 3.33076L111.346 3.37175H111.425C111.43 3.37262 111.436 3.37353 111.442 3.37449C111.548 3.39233 111.709 3.42195 111.934 3.46567C112.38 3.55256 113.033 3.68692 113.901 3.87322C115.635 4.24535 118.2 4.81892 121.635 5.62086C128.503 7.22447 138.833 9.73793 152.918 13.3727L152.919 13.3731C166.161 16.7808 175.147 19.2139 180.868 20.7942C183.205 21.4397 184.997 21.9429 186.317 22.3135C186.614 22.3967 186.886 22.4732 187.136 22.5431C187.813 22.7328 188.331 22.8772 188.694 22.9744C188.874 23.0224 189.033 23.0637 189.162 23.0942C189.218 23.1075 189.283 23.1223 189.35 23.1356L198.498 25.9417L200.061 35.4623L200.063 35.4757C200.255 36.7201 204.778 66.0593 192.172 117.87C180.666 165.008 142.403 193.517 112.952 203.738L112.945 203.741L112.938 203.743L108.075 205.468L103.086 203.739C103.085 203.739 103.084 203.739 103.082 203.738C73.7622 193.516 35.5006 165.009 23.9944 117.709ZM111.34 3.35885C111.34 3.35878 111.344 3.35925 111.353 3.36048C111.345 3.35954 111.341 3.35892 111.34 3.35885ZM47.4457 49.2584L45.7988 49.704L45.8283 51.4099C46.173 71.311 48.8553 91.1026 53.82 110.378C61.6939 142.749 86.3648 163.344 107.21 172.406L108.082 172.785L108.955 172.407C129.831 163.346 154.473 142.75 162.184 110.471C167.163 91.1999 169.835 71.4051 170.143 51.5033L170.169 49.8006L168.525 49.3559C163 47.8609 155.519 45.8442 145.113 43.2101C126.443 38.255 114.586 35.498 108.872 34.1693L108.579 34.1012L108.097 33.9892L107.615 34.0949C102.095 35.3034 90.0489 38.071 70.8923 43.0147L70.8838 43.0169L70.8753 43.0191C66.7133 44.129 62.9721 45.1216 59.6259 46.0094C54.7553 47.3017 50.7216 48.372 47.4457 49.2584Z" stroke="url(#paint2_linear_4374_12455)" stroke-width="4.37913"/>
</g>
<path d="M108.089 196.939L105.717 196.127C78.3323 186.706 42.566 160.003 31.8134 115.823C19.469 65.4709 23.8545 37.7934 24.0494 36.624L24.7965 32.1085L29.2145 30.8091C29.6044 30.8091 38.9601 27.9504 65.2732 21.0635C93.2106 13.8518 106.14 11.3179 106.659 11.123L108.121 10.8306L109.551 11.123C110.103 11.123 123 13.8518 150.969 21.0635C177.282 27.8529 186.703 30.5817 186.996 30.8091L191.414 32.1085L192.161 36.624C192.356 37.7934 196.644 65.4709 184.397 115.823C173.612 160.003 137.845 186.706 110.428 196.127L108.089 196.939ZM38.0505 43.4784C37.4658 52.8341 37.3034 76.4834 46.0094 112.38C55.2028 149.543 84.4395 172.672 108.089 181.443C131.641 172.672 161.105 149.543 170.168 112.38C178.874 76.6458 178.712 52.8341 178.127 43.4784C172.962 42.049 163.216 39.4177 147.266 35.3245C124.949 29.7371 112.149 26.7484 108.089 25.8713C103.931 26.7484 91.229 29.7371 68.9116 35.3245C52.9288 39.4827 43.2157 42.049 38.0505 43.4784Z" fill="#290C54"/>
<g filter="url(#filter1_i_4374_12455)">
<path d="M108.08 18.3998C108.08 18.3998 121.074 20.9986 149.076 28.1454C175.617 34.9673 184.81 37.696 184.81 37.696C184.81 37.696 189.293 64.5939 177.241 114.199C167.496 154.123 135.692 179.819 108.08 189.337C80.4674 179.722 48.6968 154.026 38.9512 114.199C26.8667 64.5939 31.2522 37.7935 31.2522 37.7935C31.2522 37.7935 40.543 35.0647 66.986 28.2428C95.1508 20.9986 108.08 18.3998 108.08 18.3998Z" fill="url(#paint3_linear_4374_12455)"/>
</g>
<g filter="url(#filter2_f_4374_12455)">
<path d="M107.29 158.928C125.765 136.428 165.765 82.4278 188.266 53.9278C188.266 53.9278 183.085 102.477 172.766 132.928C164.474 157.396 130.782 187.595 107.29 193.428C83.7975 187.535 46.0578 149.836 37.7663 125.428C27.4849 95.0271 30.2657 53.9278 30.2657 53.9278C65.2648 101.428 86.2648 132.928 107.29 158.928Z" fill="black" fill-opacity="0.33"/>
</g>
<g filter="url(#filter3_f_4374_12455)">
<ellipse cx="115.766" cy="44.4279" rx="59.5" ry="10" fill="white" fill-opacity="0.34"/>
</g>
<g filter="url(#filter4_dd_4374_12455)">
<path d="M12.2146 123.5H30.2866C47.2786 123.5 59.2306 113.204 59.2306 98.732C59.2306 84.26 47.2786 74.036 30.2866 74.036H12.2146V123.5ZM24.5266 112.34V85.196H32.1586C40.5826 85.196 46.6306 90.812 46.6306 98.732C46.6306 106.652 40.5826 112.34 32.1586 112.34H24.5266Z" fill="url(#paint4_linear_4374_12455)"/>
<path d="M99.1642 123.5H112.988L93.4042 74.036H79.5802L59.9962 123.5H73.8202L76.7002 116.3H96.2842L99.1642 123.5ZM80.5162 106.652L86.4922 91.46L92.4682 106.652H80.5162Z" fill="url(#paint5_linear_4374_12455)"/>
<path d="M161.3 123.5L149.348 106.508C155.756 103.916 159.86 98.228 159.86 91.028C159.86 81.02 151.94 74.036 141.068 74.036H118.1V123.5H130.412V108.02H136.46L147.332 123.5H161.3ZM130.412 85.268H139.916C144.164 85.268 147.188 87.572 147.188 91.028C147.188 94.484 144.164 96.788 139.916 96.788H130.412V85.268Z" fill="url(#paint6_linear_4374_12455)"/>
<path d="M206.622 85.052V74.036H167.67V123.5H206.622V112.484H179.982V103.772H204.174V92.756H179.982V85.052H206.622Z" fill="url(#paint7_linear_4374_12455)"/>
<path d="M9.7146 123.5V126H12.2146H30.2866C48.2846 126 61.7306 114.932 61.7306 98.732C61.7306 82.5234 48.2743 71.536 30.2866 71.536H12.2146H9.7146V74.036V123.5ZM96.843 124.428L97.4716 126H99.1642H112.988H115.6H116.667H118.1H130.412H132.912V123.5V110.52H135.161L145.286 124.937L146.033 126H147.332H161.3H165.17H166.115H167.67H206.622H209.122V123.5V112.484V109.984H206.622H182.482V106.272H204.174H206.674V103.772V92.756V90.256H204.174H182.482V87.552H206.622H209.122V85.052V74.036V71.536H206.622H167.67H165.17V74.036V123.5V124.657L163.345 122.062L153.07 107.454C158.782 104.084 162.36 98.1888 162.36 91.028C162.36 79.3921 153.06 71.536 141.068 71.536H118.1H115.6V74.036V123.306L115.313 122.58L95.7286 73.1157L95.1032 71.536H93.4042H79.5802H77.8812L77.2557 73.1157L57.6717 122.58L56.3175 126H59.9962H73.8202H75.5127L76.1414 124.428L78.3927 118.8H94.5916L96.843 124.428ZM27.0266 109.84V87.696H32.1586C39.3671 87.696 44.1306 92.3524 44.1306 98.732C44.1306 105.129 39.349 109.84 32.1586 109.84H27.0266ZM88.7983 104.152H84.186L86.4922 98.2894L88.7983 104.152ZM132.912 87.768H139.916C141.61 87.768 142.848 88.2286 143.604 88.8202C144.313 89.3755 144.688 90.1022 144.688 91.028C144.688 91.9538 144.313 92.6805 143.604 93.2358C142.848 93.8274 141.61 94.288 139.916 94.288H132.912V87.768Z" stroke="#270B50" stroke-width="5"/>
</g>
<rect x="7" y="123.5" width="25" height="11" fill="black" fill-opacity="0.31"/>
<path d="M57 123.5H77V134.5H53L57 123.5Z" fill="black" fill-opacity="0.31"/>
<rect x="79" y="116.5" width="15" height="11" fill="black" fill-opacity="0.31"/>
<rect x="29" y="85.5" width="5" height="11" fill="black" fill-opacity="0.31"/>
<rect x="135" y="85.5" width="5" height="11" fill="black" fill-opacity="0.31"/>
<rect x="96" y="123.5" width="39" height="11" fill="black" fill-opacity="0.31"/>
<rect x="145" y="123.5" width="67" height="11" fill="black" fill-opacity="0.31"/>
<defs>
<filter id="filter0_d_4374_12455" x="8.96875" y="0.5" width="198.228" height="219.289" filterUnits="userSpaceOnUse" color-interpolation-filters="sRGB">
<feFlood flood-opacity="0" result="BackgroundImageFix"/>
<feColorMatrix in="SourceAlpha" type="matrix" values="0 0 0 0 0 0 0 0 0 0 0 0 0 0 0 0 0 0 127 0" result="hardAlpha"/>
<feOffset dy="8"/>
<feGaussianBlur stdDeviation="2"/>
<feComposite in2="hardAlpha" operator="out"/>
<feColorMatrix type="matrix" values="0 0 0 0 0 0 0 0 0 0 0 0 0 0 0 0 0 0 0.5 0"/>
<feBlend mode="normal" in2="BackgroundImageFix" result="effect1_dropShadow_4374_12455"/>
<feBlend mode="normal" in="SourceGraphic" in2="effect1_dropShadow_4374_12455" result="shape"/>
</filter>
<filter id="filter1_i_4374_12455" x="30.4766" y="18.3998" width="155.149" height="174.938" filterUnits="userSpaceOnUse" color-interpolation-filters="sRGB">
<feFlood flood-opacity="0" result="BackgroundImageFix"/>
<feBlend mode="normal" in="SourceGraphic" in2="BackgroundImageFix" result="shape"/>
<feColorMatrix in="SourceAlpha" type="matrix" values="0 0 0 0 0 0 0 0 0 0 0 0 0 0 0 0 0 0 127 0" result="hardAlpha"/>
<feOffset dy="4"/>
<feGaussianBlur stdDeviation="2"/>
<feComposite in2="hardAlpha" operator="arithmetic" k2="-1" k3="1"/>
<feColorMatrix type="matrix" values="0 0 0 0 0 0 0 0 0 0 0 0 0 0 0 0 0 0 0.3 0"/>
<feBlend mode="normal" in2="shape" result="effect1_innerShadow_4374_12455"/>
</filter>
<filter id="filter2_f_4374_12455" x="16.923" y="40.9278" width="184.343" height="165.5" filterUnits="userSpaceOnUse" color-interpolation-filters="sRGB">
<feFlood flood-opacity="0" result="BackgroundImageFix"/>
<feBlend mode="normal" in="SourceGraphic" in2="BackgroundImageFix" result="shape"/>
<feGaussianBlur stdDeviation="6.5" result="effect1_foregroundBlur_4374_12455"/>
</filter>
<filter id="filter3_f_4374_12455" x="40.2656" y="18.4279" width="151" height="52" filterUnits="userSpaceOnUse" color-interpolation-filters="sRGB">
<feFlood flood-opacity="0" result="BackgroundImageFix"/>
<feBlend mode="normal" in="SourceGraphic" in2="BackgroundImageFix" result="shape"/>
<feGaussianBlur stdDeviation="8" result="effect1_foregroundBlur_4374_12455"/>
</filter>
<filter id="filter4_dd_4374_12455" x="3.2146" y="69.036" width="212.408" height="75.464" filterUnits="userSpaceOnUse" color-interpolation-filters="sRGB">
<feFlood flood-opacity="0" result="BackgroundImageFix"/>
<feColorMatrix in="SourceAlpha" type="matrix" values="0 0 0 0 0 0 0 0 0 0 0 0 0 0 0 0 0 0 127 0" result="hardAlpha"/>
<feOffset dy="12"/>
<feGaussianBlur stdDeviation="2"/>
<feComposite in2="hardAlpha" operator="out"/>
<feColorMatrix type="matrix" values="0 0 0 0 0 0 0 0 0 0 0 0 0 0 0 0 0 0 0.48 0"/>
<feBlend mode="normal" in2="BackgroundImageFix" result="effect1_dropShadow_4374_12455"/>
<feColorMatrix in="SourceAlpha" type="matrix" values="0 0 0 0 0 0 0 0 0 0 0 0 0 0 0 0 0 0 127 0" result="hardAlpha"/>
<feOffset dy="6"/>
<feComposite in2="hardAlpha" operator="out"/>
<feColorMatrix type="matrix" values="0 0 0 0 0.160784 0 0 0 0 0.0470588 0 0 0 0 0.329412 0 0 0 1 0"/>
<feBlend mode="normal" in2="effect1_dropShadow_4374_12455" result="effect2_dropShadow_4374_12455"/>
<feBlend mode="normal" in="SourceGraphic" in2="effect2_dropShadow_4374_12455" result="shape"/>
</filter>
<linearGradient id="paint0_linear_4374_12455" x1="108.083" y1="0.5" x2="108.083" y2="207.789" gradientUnits="userSpaceOnUse">
<stop offset="0.647587" stop-color="white"/>
<stop offset="0.76247" stop-opacity="0.22"/>
</linearGradient>
<linearGradient id="paint1_linear_4374_12455" x1="212.5" y1="0.5" x2="19" y2="0.5" gradientUnits="userSpaceOnUse">
<stop offset="0.535395" stop-opacity="0.17"/>
<stop offset="0.550702" stop-color="white" stop-opacity="0"/>
</linearGradient>
<linearGradient id="paint2_linear_4374_12455" x1="108.083" y1="0.5" x2="108.083" y2="207.789" gradientUnits="userSpaceOnUse">
<stop offset="0.53125" stop-color="#290C54"/>
</linearGradient>
<linearGradient id="paint3_linear_4374_12455" x1="185.626" y1="18.3998" x2="30.4766" y2="18.3998" gradientUnits="userSpaceOnUse">
<stop offset="0.0229549" stop-color="#9900D9"/>
<stop offset="0.977647" stop-color="#FF00AC"/>
</linearGradient>
<linearGradient id="paint4_linear_4374_12455" x1="108.5" y1="66.5" x2="108.5" y2="138.5" gradientUnits="userSpaceOnUse">
<stop offset="0.446495" stop-color="white"/>
<stop offset="0.510894" stop-color="#BABABA"/>
<stop offset="0.729167" stop-color="white"/>
<stop offset="0.838542" stop-color="#717171"/>
</linearGradient>
<linearGradient id="paint5_linear_4374_12455" x1="108.5" y1="66.5" x2="108.5" y2="138.5" gradientUnits="userSpaceOnUse">
<stop offset="0.446495" stop-color="white"/>
<stop offset="0.510894" stop-color="#BABABA"/>
<stop offset="0.729167" stop-color="white"/>
<stop offset="0.838542" stop-color="#717171"/>
</linearGradient>
<linearGradient id="paint6_linear_4374_12455" x1="108.5" y1="66.5" x2="108.5" y2="138.5" gradientUnits="userSpaceOnUse">
<stop offset="0.446495" stop-color="white"/>
<stop offset="0.510894" stop-color="#BABABA"/>
<stop offset="0.729167" stop-color="white"/>
<stop offset="0.838542" stop-color="#717171"/>
</linearGradient>
<linearGradient id="paint7_linear_4374_12455" x1="108.5" y1="66.5" x2="108.5" y2="138.5" gradientUnits="userSpaceOnUse">
<stop offset="0.446495" stop-color="white"/>
<stop offset="0.510894" stop-color="#BABABA"/>
<stop offset="0.729167" stop-color="white"/>
<stop offset="0.838542" stop-color="#717171"/>
</linearGradient>
</defs>
</svg>
