
    <svg xmlns="http://www.w3.org/2000/svg" width="25" height="18" fill="none" viewBox="0 0 25 18">
      <rect width="14" height="14" x="5.5" y="0.5" fill="#7A6895" stroke="#fff" rx="2.5" id="fill-icon"></rect>
      <path
        fill="#fff"
        stroke="#290C54"
        d="M10.85 2.112h-.333l-.128.307-2.835 6.776-2.836-6.776-.128-.307H1.42l.29.693 4.339 10.388.128.307H8.945l.128-.307 4.34-10.388.29-.693H10.85zm9.044 3.524l.409.354.321-.435 1.028-1.39.277-.375-.354-.303c-1.124-.962-2.477-1.572-4.256-1.572-2.389 0-4.235 1.48-4.235 3.645 0 1.136.45 1.93 1.225 2.486.732.525 1.732.821 2.805 1.07.843.2 1.37.357 1.688.542a.716.716 0 01.263.228.52.52 0 01.067.286.7.7 0 01-.298.57c-.217.167-.588.306-1.152.306-1.21 0-2.2-.478-3.082-1.277l-.392-.354-.332.41-1.09 1.346-.292.362.34.318c1.247 1.165 2.883 1.813 4.787 1.813 1.325 0 2.425-.351 3.203-1.008.786-.663 1.198-1.6 1.198-2.667 0-1.103-.437-1.898-1.197-2.463-.724-.538-1.716-.85-2.806-1.094-.833-.191-1.365-.348-1.69-.534a.754.754 0 01-.273-.233.482.482 0 01-.067-.273c0-.356.383-.86 1.254-.86.884 0 1.815.377 2.651 1.102z"
      ></path>
    </svg>