<svg width="131" height="145" viewBox="0 0 131 145" fill="none" xmlns="http://www.w3.org/2000/svg">
<rect x="0.823242" y="0.116428" width="130" height="144" fill="url(#paint0_linear_6494_69670)"/>
<path d="M65.8869 84.6767C79.8216 84.6767 91.6469 72.2761 91.6469 56.232C91.6469 40.5714 79.7577 28.5543 65.8869 28.5543C51.9522 28.5543 39.9991 40.7632 40.063 56.3598C40.063 72.2761 51.8883 84.6767 65.8869 84.6767ZM26.0004 144.123H105.646C116.192 144.123 119.836 140.927 119.836 135.046C119.836 118.619 98.9978 95.9906 65.823 95.9906C32.7121 95.9906 11.8101 118.619 11.8101 135.046C11.8101 140.927 15.4535 144.123 26.0004 144.123Z" fill="white"/>
<defs>
<linearGradient id="paint0_linear_6494_69670" x1="65.8232" y1="0.116428" x2="65.8232" y2="144.116" gradientUnits="userSpaceOnUse">
<stop stop-color="#9900D9"/>
<stop offset="1" stop-color="#3D127D"/>
</linearGradient>
</defs>
</svg>