<?xml version="1.0" encoding="UTF-8"?>
<svg width="4px" height="14px" viewBox="0 0 4 14" version="1.1" xmlns="http://www.w3.org/2000/svg" xmlns:xlink="http://www.w3.org/1999/xlink">
    <title>ic / General / One tone  / 34.2@2x</title>
    <g id="Feed" stroke="none" stroke-width="1" fill="none" fill-rule="evenodd" stroke-linecap="round" stroke-linejoin="round">
        <g id="Feed:-More-2-1" transform="translate(-292.000000, -155.000000)" stroke="#FFFFFF" stroke-width="1.5">
            <g id="Main-Area" transform="translate(0.000000, 138.000000)">
                <g id="User-Avatar&amp;Name" transform="translate(16.000000, 12.000000)">
                    <g id="Group" transform="translate(268.000000, 2.000000)">
                        <g id="Group" transform="translate(10.000000, 10.000000) rotate(90.000000) translate(-10.000000, -10.000000) translate(4.166667, 9.166667)">
                            <path d="M10.8325,0.27 C10.5208333,0.271666667 10.2708333,0.523333333 10.2708333,0.835 C10.2708333,1.14333333 10.5225,1.39666667 10.8341667,1.39666667 C11.1441667,1.395 11.3958333,1.14333333 11.3958333,0.833333333 C11.3958333,0.521666667 11.1441667,0.27 10.8341667,0.27" id="Stroke-9"></path>
                            <path d="M5.8325,0.27 C5.52083333,0.271666667 5.27083333,0.523333333 5.27083333,0.835 C5.27083333,1.14333333 5.5225,1.39666667 5.83416667,1.39666667 C6.14416667,1.395 6.39583333,1.14333333 6.39583333,0.833333333 C6.39583333,0.521666667 6.14416667,0.27 5.83416667,0.27" id="Stroke-9"></path>
                            <path d="M0.8325,0.27 C0.520833333,0.271666667 0.270833333,0.523333333 0.270833333,0.835 C0.270833333,1.14333333 0.5225,1.39666667 0.834166667,1.39666667 C1.14416667,1.395 1.39583333,1.14333333 1.39583333,0.833333333 C1.39583333,0.521666667 1.14416667,0.27 0.834166667,0.27" id="Stroke-9"></path>
                        </g>
                    </g>
                </g>
            </g>
        </g>
    </g>
</svg>