<?xml version="1.0" encoding="UTF-8"?>
<svg width="20px" height="20px" viewBox="0 0 20 20" version="1.1" xmlns="http://www.w3.org/2000/svg" xmlns:xlink="http://www.w3.org/1999/xlink">
    <title>1DB088A7-23AA-4EC1-A909-C5B6CEBE3017@2x</title>
    <defs>
        <filter color-interpolation-filters="auto" id="filter-1">
            <feColorMatrix in="SourceGraphic" type="matrix" values="0 0 0 0 1.000000 0 0 0 0 1.000000 0 0 0 0 1.000000 0 0 0 1.000000 0"></feColorMatrix>
        </filter>
    </defs>
    <g id="Full-sign-up:-Talent" stroke="currentColor" stroke-width="1" fill="none" fill-rule="evenodd">
        <g id="Full-sign-up:-Talent-3-2" transform="translate(-24.000000, -676.000000)">
            <g id="Backdrop" transform="translate(0.000000, 566.000000)">
                <g id="*-/-Elements-/-Backdrop-/-Item-2" transform="translate(0.000000, 96.000000)">
                    <g id="Iconly/Light/Gender-male" transform="translate(24.000000, 14.000000)" filter="url(#filter-1)">
                        <g>
                            <path d="M9.69917012,1.66666667 C12.7546874,1.66666667 15.2316736,4.14365284 15.2316736,7.19917012 C15.2316736,10.0678589 13.0483357,12.4266018 10.2527329,12.7043257 L10.2516667,14.2526667 L11.082296,14.253112 C11.4260417,14.253112 11.7047026,14.531773 11.7047026,14.8755187 C11.7047026,15.2192644 11.4260417,15.4979253 11.082296,15.4979253 L10.2516667,15.4976667 L10.2524205,17.7109267 C10.2524205,18.0546724 9.97375953,18.3333333 9.63001383,18.3333333 C9.28626814,18.3333333 9.00760719,18.0546724 9.00760719,17.7109267 L9.00666667,15.4976667 L8.17773167,15.4979253 C7.83398598,15.4979253 7.55532503,15.2192644 7.55532503,14.8755187 C7.55532503,14.531773 7.83398598,14.253112 8.17773167,14.253112 L9.00666667,14.2526667 L9.00687777,12.6887791 C6.27810811,12.3481385 4.16666667,10.0202311 4.16666667,7.19917012 C4.16666667,4.14365284 6.64365284,1.66666667 9.69917012,1.66666667 Z M9.69917012,2.91147994 C7.33114423,2.91147994 5.41147994,4.83114423 5.41147994,7.19917012 C5.41147994,9.56719602 7.33114423,11.4868603 9.69917012,11.4868603 C12.067196,11.4868603 13.9868603,9.56719602 13.9868603,7.19917012 C13.9868603,4.83114423 12.067196,2.91147994 9.69917012,2.91147994 Z" id="Combined-Shape" fill="#200E32"></path>
                        </g>
                    </g>
                </g>
            </g>
        </g>
    </g>
</svg>