<svg width="47" height="44" viewBox="0 0 47 44" fill="none" xmlns="http://www.w3.org/2000/svg">
<g filter="url(#filter0_d_6466_2116)">
<path d="M24.6287 41.8611L23.4803 41.4631C17.4906 39.3752 9.66733 33.555 7.31189 23.8723C4.75417 13.3608 5.68069 7.4037 5.71984 7.14924L6.0787 4.96344L8.20578 4.31096C8.28408 4.31096 10.1632 3.73025 15.5135 2.35352C21.1836 0.924592 23.7935 0.38956 23.9305 0.363461L24.6287 0.22644L25.3268 0.363461C25.4312 0.363461 28.0803 0.924592 33.7438 2.38614C39.068 3.75635 40.9733 4.34358 41.0516 4.34358L43.1786 4.99606L43.5375 7.18186C43.5766 7.43633 44.5032 13.3935 41.9454 23.9049C39.59 33.555 31.7668 39.3752 25.7509 41.4631L24.6287 41.8611ZM12.5643 10.4443C12.633 14.408 13.1673 18.3499 14.1564 22.1889C15.6962 28.5244 20.5311 32.5698 24.6287 34.3511C28.7328 32.5698 33.5611 28.5244 35.0683 22.2084C36.0603 18.3702 36.5925 14.4277 36.6538 10.4638C35.5446 10.1637 34.0439 9.75915 31.956 9.23065C28.1455 8.2193 25.7509 7.6647 24.6287 7.4037C23.526 7.64512 21.1118 8.19973 17.2687 9.1915C15.2134 9.73958 13.6736 10.1441 12.5643 10.4443Z" fill="white"/>
<path d="M7.73921 23.7683L7.7392 23.7683C5.20704 13.3619 6.11553 7.46891 6.15409 7.21883L6.15416 7.21835L6.46848 5.30388L8.30582 4.74028C8.31925 4.73762 8.33226 4.73466 8.34336 4.73203C8.36909 4.72594 8.40085 4.7177 8.4366 4.70812C8.50886 4.68877 8.61212 4.65999 8.74704 4.62215C8.79515 4.60865 8.84757 4.59392 8.90445 4.57794C9.16836 4.5038 9.52828 4.40268 9.99977 4.27241C11.1455 3.95588 12.95 3.46727 15.6221 2.77969C21.2879 1.35185 23.888 0.819241 24.0128 0.795482L24.0152 0.79501L24.6287 0.674612L25.2421 0.79501L25.2841 0.803242H25.3C25.301 0.803415 25.3021 0.803599 25.3033 0.803793C25.3246 0.807374 25.357 0.813325 25.4021 0.822106C25.4918 0.839558 25.6229 0.866546 25.7973 0.903965C26.1456 0.978708 26.6608 1.09391 27.3506 1.25498C28.7301 1.57707 30.8049 2.08191 33.6339 2.81198L33.6342 2.81205C36.2938 3.4965 38.0987 3.9852 39.2478 4.3026C39.717 4.4322 40.0769 4.53323 40.342 4.60766C40.4017 4.62441 40.4565 4.63981 40.5067 4.65388C40.6427 4.69199 40.7468 4.72098 40.8197 4.7405C40.8558 4.75015 40.8878 4.75845 40.9136 4.76457C40.9249 4.76723 40.938 4.77022 40.9515 4.77289L42.7889 5.3365L43.1028 7.24874L43.1032 7.25145C43.1418 7.50147 44.0503 13.3945 41.5181 23.8009C39.2071 33.2686 31.522 38.9946 25.6067 41.0476L25.6039 41.0486L24.627 41.3951L23.6251 41.0478C17.7359 38.9949 10.0504 33.269 7.73921 23.7683ZM25.283 0.800652C25.2829 0.800634 25.2837 0.800726 25.2855 0.800978L25.283 0.800652ZM12.4495 10.0197L12.1187 10.1092L12.1246 10.4519C12.1939 14.4491 12.7326 18.4243 13.7298 22.2957C15.3112 28.7976 20.2665 32.9343 24.4533 34.7544L24.6285 34.8305L24.8038 34.7545C28.9968 32.9346 33.9463 28.7979 35.4951 22.3145C36.4951 18.4438 37.0317 14.468 37.0936 10.4706L37.0989 10.1286L36.7687 10.0393C35.6591 9.73905 34.1565 9.334 32.0664 8.80494C28.3163 7.80967 25.9348 7.2559 24.7871 6.98903L24.7283 6.97535L24.6316 6.95287L24.5346 6.9741C23.426 7.21682 21.0065 7.77272 17.1588 8.76567L17.1588 8.76565L17.1554 8.76656C16.3194 8.9895 15.5679 9.18888 14.8958 9.36722C13.9176 9.62676 13.1074 9.8417 12.4495 10.0197Z" stroke="#290C54" stroke-width="0.879563"/>
</g>
<path d="M24.6297 39.6819L24.1534 39.5188C18.653 37.6266 11.4692 32.2632 9.30953 23.3895C6.83011 13.2761 7.71096 7.71696 7.75011 7.48207L7.90018 6.57513L8.78755 6.31413C8.86585 6.31413 10.745 5.73995 16.0301 4.3567C21.6414 2.9082 24.2382 2.39926 24.3426 2.36011L24.6363 2.30139L24.9233 2.36011C25.0343 2.36011 27.6246 2.9082 33.2424 4.3567C38.5275 5.72038 40.4197 6.26846 40.4784 6.31413L41.3658 6.57513L41.5159 7.48207C41.555 7.71696 42.4163 13.2761 39.9565 23.3895C37.7902 32.2632 30.6064 37.6266 25.0995 39.5188L24.6297 39.6819ZM10.5623 8.8588C10.4448 10.7379 10.4122 15.488 12.1609 22.6979C14.0074 30.1622 19.8797 34.8079 24.6297 36.5696C29.3602 34.8079 35.2782 30.1622 37.0986 22.6979C38.8472 15.5206 38.8146 10.7379 38.6972 8.8588C37.6597 8.57171 35.7023 8.0432 32.4986 7.22108C28.0161 6.09882 25.4453 5.49854 24.6297 5.32237C23.7946 5.49854 21.2434 6.09882 16.7608 7.22108C13.5506 8.05625 11.5997 8.57171 10.5623 8.8588Z" fill="#290C54"/>
<g filter="url(#filter1_i_6466_2116)">
<path d="M24.6279 3.82178C24.6279 3.82178 27.2378 4.34376 32.8622 5.77921C38.193 7.14942 40.0395 7.6975 40.0395 7.6975C40.0395 7.6975 40.9399 13.1 38.5192 23.0634C36.5618 31.0823 30.174 36.2434 24.6279 38.1552C19.0819 36.2239 12.7006 31.0628 10.7432 23.0634C8.31597 13.1 9.19681 7.71707 9.19681 7.71707C9.19681 7.71707 11.0629 7.16899 16.3741 5.79879C22.0311 4.34376 24.6279 3.82178 24.6279 3.82178Z" fill="url(#paint0_linear_6466_2116)"/>
<path d="M24.6279 3.82178C24.6279 3.82178 27.2378 4.34376 32.8622 5.77921C38.193 7.14942 40.0395 7.6975 40.0395 7.6975C40.0395 7.6975 40.9399 13.1 38.5192 23.0634C36.5618 31.0823 30.174 36.2434 24.6279 38.1552C19.0819 36.2239 12.7006 31.0628 10.7432 23.0634C8.31597 13.1 9.19681 7.71707 9.19681 7.71707C9.19681 7.71707 11.0629 7.16899 16.3741 5.79879C22.0311 4.34376 24.6279 3.82178 24.6279 3.82178Z" fill="#50337B"/>
</g>
<g filter="url(#filter2_f_6466_2116)">
<path d="M24.4694 32.0473C28.1801 27.5281 36.2142 16.682 40.7336 10.9576C40.7336 10.9576 39.693 20.7089 37.6204 26.8251C35.955 31.7395 29.1879 37.8051 24.4694 38.9767C19.7508 37.7931 12.1707 30.2211 10.5053 25.3187C8.44023 19.2126 8.99876 10.9576 8.99876 10.9576C16.0285 20.4982 20.2464 26.8251 24.4694 32.0473Z" fill="black" fill-opacity="0.33"/>
</g>
<g filter="url(#filter3_f_6466_2116)">
<ellipse cx="24.7657" cy="9.04955" rx="11.9508" ry="2.00854" fill="white" fill-opacity="0.34"/>
</g>
<g filter="url(#filter4_d_6466_2116)">
<path fill-rule="evenodd" clip-rule="evenodd" d="M19.7123 32.5494H12.0716L2.37036 9.25037H10.8696L15.8919 22.5898L20.7855 9.25037H29.2847L27.4328 13.758C29.1063 12.4641 31.4501 11.6859 34.3365 11.6859C37.9757 11.6859 41.4783 12.9956 44.1621 14.7569L41.2054 20.0859C39.2493 18.8214 36.5655 17.602 34.3365 17.602C33.1083 17.602 32.2895 18.2343 32.2895 18.9117C32.2895 19.5921 33.1112 19.7759 34.9443 20.1861C35.1798 20.2388 35.432 20.2952 35.7012 20.3569C39.9772 21.3053 44.89 22.7053 44.89 28.215C44.89 33.0472 41.0234 36.1182 34.655 36.1182C30.561 36.1182 26.3305 34.8085 23.4647 32.5956L26.7399 27.3117C29.0143 28.8924 32.3805 30.0666 34.8824 30.0666C36.52 30.0666 37.1114 29.6601 37.1114 28.8924C37.1114 28.0795 35.7467 27.6279 33.5632 27.1762C29.5613 26.3309 25.121 25.3669 24.5684 20.7298L19.7123 32.5494Z" fill="white"/>
<path d="M12.0716 32.5494L11.4626 32.803C11.565 33.0489 11.8052 33.2091 12.0716 33.2091V32.5494ZM19.7123 32.5494V33.2091C19.9798 33.2091 20.2208 33.0475 20.3225 32.8001L19.7123 32.5494ZM2.37036 9.25037V8.59069C2.14983 8.59069 1.94388 8.7009 1.82153 8.88438C1.69917 9.06786 1.6766 9.30035 1.76137 9.50394L2.37036 9.25037ZM10.8696 9.25037L11.487 9.01793C11.3902 8.76088 11.1443 8.59069 10.8696 8.59069V9.25037ZM15.8919 22.5898L15.2746 22.8223C15.3717 23.0803 15.6191 23.2507 15.8947 23.2495C16.1704 23.2483 16.4163 23.0759 16.5113 22.817L15.8919 22.5898ZM20.7855 9.25037V8.59069C20.5087 8.59069 20.2614 8.76339 20.1661 9.02317L20.7855 9.25037ZM29.2847 9.25037L29.8949 9.50106C29.9785 9.29758 29.9552 9.06582 29.8327 8.88308C29.7102 8.70035 29.5047 8.59069 29.2847 8.59069V9.25037ZM27.4328 13.758L26.8226 13.5073C26.7091 13.7836 26.7954 14.1016 27.0329 14.2826C27.2704 14.4637 27.6 14.4626 27.8363 14.2799L27.4328 13.758ZM44.1621 14.7569L44.739 15.0769C44.9065 14.7749 44.8128 14.3948 44.5241 14.2053L44.1621 14.7569ZM41.2054 20.0859L40.8472 20.6399C41.0006 20.7391 41.1883 20.7702 41.3655 20.7258C41.5427 20.6815 41.6936 20.5657 41.7822 20.406L41.2054 20.0859ZM34.9443 20.1861L34.8003 20.8298H34.8003L34.9443 20.1861ZM35.7012 20.3569L35.5539 20.9999L35.5584 21.0009L35.7012 20.3569ZM23.4647 32.5956L22.904 32.2481C22.7259 32.5355 22.7939 32.9111 23.0615 33.1177L23.4647 32.5956ZM26.7399 27.3117L27.1164 26.77C26.9678 26.6667 26.7833 26.6291 26.6061 26.6658C26.4289 26.7025 26.2745 26.8104 26.1792 26.9642L26.7399 27.3117ZM33.5632 27.1762L33.4269 27.8217L33.4296 27.8222L33.5632 27.1762ZM24.5684 20.7298L25.2234 20.6518C25.1879 20.3534 24.9552 20.1168 24.6576 20.0762C24.3599 20.0356 24.0724 20.2012 23.9582 20.4791L24.5684 20.7298ZM12.0716 33.2091H19.7123V31.8897H12.0716V33.2091ZM1.76137 9.50394L11.4626 32.803L12.6805 32.2958L2.97935 8.9968L1.76137 9.50394ZM10.8696 8.59069H2.37036V9.91004H10.8696V8.59069ZM16.5093 22.3574L11.487 9.01793L10.2523 9.4828L15.2746 22.8223L16.5093 22.3574ZM20.1661 9.02317L15.2726 22.3626L16.5113 22.817L21.4048 9.47756L20.1661 9.02317ZM29.2847 8.59069H20.7855V9.91004H29.2847V8.59069ZM28.043 14.0087L29.8949 9.50106L28.6746 8.99967L26.8226 13.5073L28.043 14.0087ZM34.3365 11.0262C31.3332 11.0262 28.8395 11.8366 27.0293 13.2361L27.8363 14.2799C29.3731 13.0917 31.5669 12.3456 34.3365 12.3456V11.0262ZM44.5241 14.2053C41.7545 12.3878 38.1281 11.0262 34.3365 11.0262V12.3456C37.8232 12.3456 41.2021 13.6033 43.8002 15.3084L44.5241 14.2053ZM41.7822 20.406L44.739 15.0769L43.5853 14.4368L40.6285 19.7659L41.7822 20.406ZM34.3365 18.2617C36.3732 18.2617 38.9252 19.3974 40.8472 20.6399L41.5635 19.5319C39.5735 18.2454 36.7578 16.9424 34.3365 16.9424V18.2617ZM32.9492 18.9117C32.9492 18.8551 32.9858 18.7093 33.2225 18.5489C33.4534 18.3925 33.8307 18.2617 34.3365 18.2617V16.9424C33.6142 16.9424 32.9679 17.1277 32.4824 17.4567C32.0027 17.7818 31.6299 18.2909 31.6299 18.9117H32.9492ZM35.0884 19.5423C34.1428 19.3308 33.5514 19.1957 33.1847 19.0419C33.0082 18.9679 32.9518 18.9156 32.9404 18.9028C32.9383 18.9004 32.9434 18.9061 32.9477 18.9176C32.9516 18.9284 32.9492 18.9292 32.9492 18.9117H31.6299C31.6299 19.2329 31.7337 19.5303 31.9527 19.7775C32.1527 20.0033 32.4162 20.1503 32.6743 20.2585C33.1767 20.4693 33.9127 20.6312 34.8003 20.8298L35.0884 19.5423ZM35.8485 19.7139C35.5774 19.6517 35.3237 19.595 35.0884 19.5423L34.8003 20.8298C35.0359 20.8826 35.2865 20.9386 35.5539 20.9999L35.8485 19.7139ZM45.5496 28.215C45.5496 25.2133 44.188 23.2891 42.2611 22.024C40.3846 20.792 37.9743 20.1853 35.844 19.7129L35.5584 21.0009C37.704 21.4768 39.8881 22.0443 41.537 23.1269C43.1355 24.1763 44.2303 25.7069 44.2303 28.215H45.5496ZM34.655 36.7779C37.9367 36.7779 40.6536 35.9874 42.5658 34.4993C44.4961 32.997 45.5496 30.8255 45.5496 28.215H44.2303C44.2303 30.4367 43.3505 32.2168 41.7555 33.4581C40.1423 34.7135 37.7417 35.4585 34.655 35.4585V36.7779ZM23.0615 33.1177C26.0606 35.4335 30.4392 36.7779 34.655 36.7779V35.4585C30.6827 35.4585 26.6004 34.1835 23.8679 32.0735L23.0615 33.1177ZM26.1792 26.9642L22.904 32.2481L24.0254 32.9432L27.3006 27.6593L26.1792 26.9642ZM34.8824 29.4069C32.5375 29.4069 29.3002 28.2877 27.1164 26.77L26.3634 27.8534C28.7285 29.497 32.2235 30.7262 34.8824 30.7262V29.4069ZM36.4517 28.8924C36.4517 28.9993 36.4315 29.0527 36.4165 29.0797C36.4032 29.1038 36.3738 29.1441 36.2885 29.1919C36.0891 29.3036 35.6742 29.4069 34.8824 29.4069V30.7262C35.7282 30.7262 36.4278 30.6263 36.9335 30.3428C37.2007 30.1931 37.4215 29.9878 37.5702 29.7197C37.7173 29.4546 37.771 29.1693 37.771 28.8924H36.4517ZM33.4296 27.8222C34.5213 28.048 35.3464 28.2626 35.8898 28.5024C36.161 28.622 36.3156 28.7285 36.3952 28.8089C36.4318 28.8459 36.4446 28.8694 36.4484 28.8778C36.4512 28.884 36.4517 28.8866 36.4517 28.8924H37.771C37.771 28.0462 37.0521 27.5731 36.4224 27.2953C35.7376 26.9931 34.7886 26.756 33.6968 26.5302L33.4296 27.8222ZM23.9134 20.8079C24.2195 23.377 25.6262 24.9445 27.4537 25.9525C29.2351 26.9351 31.448 27.4037 33.4269 27.8217L33.6996 26.5308C31.6765 26.1035 29.6683 25.6674 28.0909 24.7973C26.5597 23.9527 25.4699 22.7197 25.2234 20.6518L23.9134 20.8079ZM20.3225 32.8001L25.1786 20.9805L23.9582 20.4791L19.1021 32.2987L20.3225 32.8001Z" fill="#290C54"/>
</g>
<defs>
<filter id="filter0_d_6466_2116" x="4.72124" y="0.22644" width="39.8148" height="43.6432" filterUnits="userSpaceOnUse" color-interpolation-filters="sRGB">
<feFlood flood-opacity="0" result="BackgroundImageFix"/>
<feColorMatrix in="SourceAlpha" type="matrix" values="0 0 0 0 0 0 0 0 0 0 0 0 0 0 0 0 0 0 127 0" result="hardAlpha"/>
<feOffset dy="1.20512"/>
<feGaussianBlur stdDeviation="0.401707"/>
<feComposite in2="hardAlpha" operator="out"/>
<feColorMatrix type="matrix" values="0 0 0 0 0 0 0 0 0 0 0 0 0 0 0 0 0 0 0.3 0"/>
<feBlend mode="normal" in2="BackgroundImageFix" result="effect1_dropShadow_6466_2116"/>
<feBlend mode="normal" in="SourceGraphic" in2="effect1_dropShadow_6466_2116" result="shape"/>
</filter>
<filter id="filter1_i_6466_2116" x="9.04102" y="3.82178" width="31.1624" height="35.1368" filterUnits="userSpaceOnUse" color-interpolation-filters="sRGB">
<feFlood flood-opacity="0" result="BackgroundImageFix"/>
<feBlend mode="normal" in="SourceGraphic" in2="BackgroundImageFix" result="shape"/>
<feColorMatrix in="SourceAlpha" type="matrix" values="0 0 0 0 0 0 0 0 0 0 0 0 0 0 0 0 0 0 127 0" result="hardAlpha"/>
<feOffset dy="0.803414"/>
<feGaussianBlur stdDeviation="0.401707"/>
<feComposite in2="hardAlpha" operator="arithmetic" k2="-1" k3="1"/>
<feColorMatrix type="matrix" values="0 0 0 0 0 0 0 0 0 0 0 0 0 0 0 0 0 0 0.3 0"/>
<feBlend mode="normal" in2="shape" result="effect1_innerShadow_6466_2116"/>
</filter>
<filter id="filter2_f_6466_2116" x="6.9214" y="8.94911" width="35.8208" height="32.0361" filterUnits="userSpaceOnUse" color-interpolation-filters="sRGB">
<feFlood flood-opacity="0" result="BackgroundImageFix"/>
<feBlend mode="normal" in="SourceGraphic" in2="BackgroundImageFix" result="shape"/>
<feGaussianBlur stdDeviation="1.00427" result="effect1_foregroundBlur_6466_2116"/>
</filter>
<filter id="filter3_f_6466_2116" x="9.60128" y="3.82736" width="30.3289" height="10.4444" filterUnits="userSpaceOnUse" color-interpolation-filters="sRGB">
<feFlood flood-opacity="0" result="BackgroundImageFix"/>
<feBlend mode="normal" in="SourceGraphic" in2="BackgroundImageFix" result="shape"/>
<feGaussianBlur stdDeviation="1.60683" result="effect1_foregroundBlur_6466_2116"/>
</filter>
<filter id="filter4_d_6466_2116" x="0.907279" y="8.5907" width="45.4457" height="30.1957" filterUnits="userSpaceOnUse" color-interpolation-filters="sRGB">
<feFlood flood-opacity="0" result="BackgroundImageFix"/>
<feColorMatrix in="SourceAlpha" type="matrix" values="0 0 0 0 0 0 0 0 0 0 0 0 0 0 0 0 0 0 127 0" result="hardAlpha"/>
<feOffset dy="1.20512"/>
<feGaussianBlur stdDeviation="0.401707"/>
<feComposite in2="hardAlpha" operator="out"/>
<feColorMatrix type="matrix" values="0 0 0 0 0 0 0 0 0 0 0 0 0 0 0 0 0 0 0.3 0"/>
<feBlend mode="normal" in2="BackgroundImageFix" result="effect1_dropShadow_6466_2116"/>
<feBlend mode="normal" in="SourceGraphic" in2="effect1_dropShadow_6466_2116" result="shape"/>
</filter>
<linearGradient id="paint0_linear_6466_2116" x1="40.2033" y1="3.82178" x2="9.04102" y2="3.82178" gradientUnits="userSpaceOnUse">
<stop offset="0.0229549" stop-color="#9900D9"/>
<stop offset="0.977647" stop-color="#FF00AC"/>
</linearGradient>
</defs>
</svg>
