<svg width="130" height="130" viewBox="0 0 130 130" fill="none" xmlns="http://www.w3.org/2000/svg">
	<g opacity="0.3" filter="url(#filter0_f_825_589)">
		<circle cx="65" cy="65" r="61" fill="white" fill-opacity="0.17" />
	</g>
	<circle opacity="0.3" cx="65" cy="65" r="47" fill="white" fill-opacity="0.38" />
	<circle opacity="0.3" cx="65" cy="65" r="52" fill="white" fill-opacity="0.38" />
	<g filter="url(#filter1_f_825_589)">
		<circle cx="65" cy="65" r="42" fill="url(#paint0_linear_825_589)" fill-opacity="0.4" style="mix-blend-mode:multiply" />
	</g>
	<circle cx="65" cy="65" r="42" fill="url(#paint1_radial_825_589)" />
	<g filter="url(#filter2_d_825_589)">
		<path d="M79.2194 52.0834L77.5949 50.7234C77.2683 50.4533 77.0688 50.0379 77.0385 49.5891L76.9193 47.8563C76.9065 47.67 76.6681 47.6013 76.5582 47.7522L75.5353 49.156C75.2644 49.5239 74.8759 49.764 74.4607 49.8204L72.362 50.1075C72.3617 50.1075 72.3614 50.1075 72.3611 50.1074C72.359 50.1068 72.3575 50.1095 72.3592 50.111L73.9763 51.4646C74.3028 51.7348 74.5024 52.1502 74.5327 52.599L74.6518 54.3318C74.6647 54.5181 74.9031 54.5867 75.013 54.4359L76.0359 53.0321C76.3068 52.6642 76.6952 52.424 77.1105 52.3677L79.2096 52.0805" fill="white" />
		<path d="M79.2194 52.0834L77.5949 50.7234C77.2683 50.4533 77.0688 50.0379 77.0385 49.5891L76.9193 47.8563C76.9065 47.67 76.6681 47.6013 76.5582 47.7522L75.5353 49.156C75.2644 49.5239 74.8759 49.764 74.4607 49.8204L72.362 50.1075C72.3617 50.1075 72.3614 50.1075 72.3611 50.1074V50.1074C72.359 50.1068 72.3575 50.1095 72.3592 50.111L73.9763 51.4646C74.3028 51.7348 74.5024 52.1502 74.5327 52.599L74.6518 54.3318C74.6647 54.5181 74.9031 54.5867 75.013 54.4359L76.0359 53.0321C76.3068 52.6642 76.6952 52.424 77.1105 52.3677L79.2096 52.0805" stroke="#290C54" stroke-width="0.8" stroke-linecap="round" stroke-linejoin="round" />
		<path d="M85.9824 43.6095L84.9654 42.7582C84.761 42.5891 84.6361 42.329 84.6171 42.048L84.5566 41.1682C84.5438 40.982 84.3054 40.9133 84.1955 41.0642L83.6761 41.7769C83.5065 42.0072 83.2633 42.1576 83.0034 42.1929L81.6896 42.3726C81.6894 42.3726 81.6892 42.3726 81.689 42.3725C81.6877 42.3721 81.6868 42.3739 81.6878 42.3748L82.7002 43.2222C82.9046 43.3913 83.0295 43.6513 83.0484 43.9323L83.109 44.8121C83.1218 44.9984 83.3602 45.0671 83.4701 44.9162L83.9895 44.2034C84.1591 43.9731 84.4022 43.8228 84.6622 43.7875L85.9763 43.6077" fill="white" />
		<path d="M85.9824 43.6095L84.9654 42.7582C84.761 42.5891 84.6361 42.329 84.6171 42.048L84.5566 41.1682C84.5438 40.982 84.3054 40.9133 84.1955 41.0642L83.6761 41.7769C83.5065 42.0072 83.2633 42.1576 83.0034 42.1929L81.6896 42.3726C81.6894 42.3726 81.6892 42.3726 81.689 42.3725V42.3725C81.6877 42.3721 81.6868 42.3739 81.6878 42.3748L82.7002 43.2222C82.9046 43.3913 83.0295 43.6513 83.0484 43.9323L83.109 44.8121C83.1218 44.9984 83.3602 45.0671 83.4701 44.9162L83.9895 44.2034C84.1591 43.9731 84.4022 43.8228 84.6622 43.7875L85.9763 43.6077" stroke="#290C54" stroke-width="0.7" stroke-linecap="round" stroke-linejoin="round" />
	</g>
	<path d="M76.9931 64.8811C76.9931 63.6858 76.0231 62.7158 74.8278 62.7158H65.5587C66.0666 61.5014 66.5219 60.3307 66.7148 59.6209C67.2037 57.8155 66.1137 51.5 63.8307 51.5C62.6353 51.5 61.6653 52.47 61.6653 53.6653V57.1359L56.2873 64.5817H53.7598V76.6329H56.6876C56.8334 77.687 57.7372 78.4989 58.8317 78.4989H72.4348C73.6302 78.4989 74.6001 77.5289 74.6001 76.3335C74.6001 75.6349 74.2682 75.0137 73.7547 74.6179C74.6988 74.3846 75.3986 73.5324 75.3986 72.5164C75.3986 71.8178 75.0666 71.1966 74.5531 70.8008C75.4972 70.5675 76.197 69.7153 76.197 68.6993C76.197 68.0007 75.865 67.3795 75.3515 66.9837C76.2956 66.7504 76.9954 65.8982 76.9954 64.8822L76.9931 64.8811Z" fill="white" />
	<path d="M73.7968 74.6526C73.4245 74.9543 72.9513 75.1359 72.4343 75.1359H58.8312C57.7367 75.1359 56.8329 74.3241 56.6871 73.27H53.7593V76.6341H56.6871C56.8329 77.6881 57.7367 78.5 58.8312 78.5H72.4343C73.6297 78.5 74.5997 77.53 74.5997 76.3347C74.5997 75.6551 74.2857 75.0496 73.7968 74.6526Z" fill="#C0C8D9" fill-opacity="0.38" />
	<path d="M64.3922 59.7708C64.1994 60.4807 63.5165 62.212 63.0085 63.4276H65.2512C65.7592 62.2132 66.4421 60.4818 66.6349 59.7708C67.1239 57.9655 66.0339 51.65 63.7508 51.65C63.2754 51.65 62.838 51.8047 62.4814 52.0638C64.0917 53.4969 64.806 58.2447 64.3922 59.7708Z" fill="#C0C8D9" fill-opacity="0.38" />
	<path d="M76.4949 64.9231C76.4937 64.9092 76.4931 64.8952 76.4931 64.8811C76.4931 63.9619 75.747 63.2158 74.8278 63.2158H65.5587C65.3914 63.2158 65.2352 63.1321 65.1424 62.9929C65.0497 62.8536 65.0328 62.6772 65.0974 62.5228C65.6065 61.3057 66.049 60.1639 66.2322 59.4902L76.4949 64.9231ZM76.4949 64.9231C76.4765 65.6856 75.9451 66.322 75.2315 66.4983C75.0452 66.5443 74.9016 66.6929 74.8622 66.8808C74.8227 67.0686 74.8942 67.2625 75.0462 67.3797C75.4427 67.6853 75.697 68.1629 75.697 68.6993C75.697 69.4799 75.1594 70.1359 74.4331 70.3154C74.2468 70.3614 74.1032 70.51 74.0638 70.6979C74.0243 70.8857 74.0958 71.0796 74.2478 71.1968C74.6443 71.5024 74.8986 71.98 74.8986 72.5164C74.8986 73.297 74.361 73.953 73.6347 74.1324C73.4484 74.1785 73.3048 74.3271 73.2653 74.515C73.2259 74.7028 73.2974 74.8967 73.4494 75.0139C73.8459 75.3195 74.1001 75.7971 74.1001 76.3335C74.1001 77.2527 73.354 77.9989 72.4348 77.9989H58.8317C57.9906 77.9989 57.295 77.3748 57.1829 76.5644C57.1487 76.3171 56.9373 76.1329 56.6876 76.1329H54.2598V65.0817H56.2873C56.4478 65.0817 56.5986 65.0046 56.6926 64.8745L62.0706 57.4287C62.1322 57.3435 62.1653 57.241 62.1653 57.1359V53.6653C62.1653 52.7461 62.9114 52 63.8307 52C64.1493 52 64.5145 52.2212 64.8978 52.7933C65.2715 53.351 65.5888 54.1395 65.8301 55.0161C66.0699 55.887 66.2264 56.8149 66.2931 57.631C66.361 58.4624 66.3311 59.1248 66.2322 59.49L76.4949 64.9231Z" stroke="#290C54" stroke-linejoin="round" />
	<path d="M49.6127 62.5599C49.6295 62.5302 49.6432 62.5114 49.6529 62.5H54.3471C54.3568 62.5114 54.3705 62.5302 54.3873 62.5599C54.4472 62.666 54.5 62.8463 54.5 63.0726V77.4274C54.5 77.6537 54.4472 77.834 54.3873 77.9401C54.3705 77.9698 54.3568 77.9886 54.3471 78H49.6529C49.6432 77.9886 49.6295 77.9698 49.6127 77.9401C49.5528 77.834 49.5 77.6537 49.5 77.4274V63.0726C49.5 62.8463 49.5528 62.666 49.6127 62.5599ZM54.3304 62.4844C54.3305 62.4842 54.3324 62.4852 54.3359 62.4883C54.3321 62.4863 54.3303 62.4847 54.3304 62.4844ZM54.3304 78.0156C54.3303 78.0153 54.3321 78.0137 54.3359 78.0117C54.3324 78.0148 54.3305 78.0158 54.3304 78.0156ZM49.6696 78.0156C49.6695 78.0159 49.6676 78.0148 49.6641 78.0117C49.6679 78.0137 49.6697 78.0153 49.6696 78.0156ZM49.6641 62.4883C49.6676 62.4852 49.6695 62.4842 49.6696 62.4844C49.6697 62.4847 49.6679 62.4863 49.6641 62.4883Z" fill="white" />
	<path d="M49.6127 62.5599C49.6295 62.5302 49.6432 62.5114 49.6529 62.5H54.3471C54.3568 62.5114 54.3705 62.5302 54.3873 62.5599C54.4472 62.666 54.5 62.8463 54.5 63.0726V77.4274C54.5 77.6537 54.4472 77.834 54.3873 77.9401C54.3705 77.9698 54.3568 77.9886 54.3471 78H49.6529C49.6432 77.9886 49.6295 77.9698 49.6127 77.9401C49.5528 77.834 49.5 77.6537 49.5 77.4274V63.0726C49.5 62.8463 49.5528 62.666 49.6127 62.5599ZM54.3304 62.4844C54.3305 62.4842 54.3324 62.4852 54.3359 62.4883C54.3321 62.4863 54.3303 62.4847 54.3304 62.4844ZM54.3304 78.0156C54.3303 78.0153 54.3321 78.0137 54.3359 78.0117C54.3324 78.0148 54.3305 78.0158 54.3304 78.0156ZM49.6696 78.0156C49.6695 78.0159 49.6676 78.0148 49.6641 78.0117C49.6679 78.0137 49.6697 78.0153 49.6696 78.0156ZM49.6641 62.4883C49.6676 62.4852 49.6695 62.4842 49.6696 62.4844C49.6697 62.4847 49.6679 62.4863 49.6641 62.4883Z" fill="#C0C8D9" fill-opacity="0.38" />
	<path d="M49.6127 62.5599C49.6295 62.5302 49.6432 62.5114 49.6529 62.5H54.3471C54.3568 62.5114 54.3705 62.5302 54.3873 62.5599C54.4472 62.666 54.5 62.8463 54.5 63.0726V77.4274C54.5 77.6537 54.4472 77.834 54.3873 77.9401C54.3705 77.9698 54.3568 77.9886 54.3471 78H49.6529C49.6432 77.9886 49.6295 77.9698 49.6127 77.9401C49.5528 77.834 49.5 77.6537 49.5 77.4274V63.0726C49.5 62.8463 49.5528 62.666 49.6127 62.5599ZM54.3304 62.4844C54.3305 62.4842 54.3324 62.4852 54.3359 62.4883C54.3321 62.4863 54.3303 62.4847 54.3304 62.4844ZM54.3304 78.0156C54.3303 78.0153 54.3321 78.0137 54.3359 78.0117C54.3324 78.0148 54.3305 78.0158 54.3304 78.0156ZM49.6696 78.0156C49.6695 78.0159 49.6676 78.0148 49.6641 78.0117C49.6679 78.0137 49.6697 78.0153 49.6696 78.0156ZM49.6641 62.4883C49.6676 62.4852 49.6695 62.4842 49.6696 62.4844C49.6697 62.4847 49.6679 62.4863 49.6641 62.4883Z" stroke="#290C54" />
	<defs>
		<filter id="filter0_f_825_589" x="0" y="0" width="130" height="130" filterUnits="userSpaceOnUse" color-interpolation-filters="sRGB">
			<feFlood flood-opacity="0" result="BackgroundImageFix" />
			<feBlend mode="normal" in="SourceGraphic" in2="BackgroundImageFix" result="shape" />
			<feGaussianBlur stdDeviation="2" result="effect1_foregroundBlur_825_589" />
		</filter>
		<filter id="filter1_f_825_589" x="12.1269" y="12.1269" width="105.746" height="105.746" filterUnits="userSpaceOnUse" color-interpolation-filters="sRGB">
			<feFlood flood-opacity="0" result="BackgroundImageFix" />
			<feBlend mode="normal" in="SourceGraphic" in2="BackgroundImageFix" result="shape" />
			<feGaussianBlur stdDeviation="5.43656" result="effect1_foregroundBlur_825_589" />
		</filter>
		<filter id="filter2_d_825_589" x="60.4561" y="28.6312" width="38.3765" height="38.2877" filterUnits="userSpaceOnUse" color-interpolation-filters="sRGB">
			<feFlood flood-opacity="0" result="BackgroundImageFix" />
			<feColorMatrix in="SourceAlpha" type="matrix" values="0 0 0 0 0 0 0 0 0 0 0 0 0 0 0 0 0 0 127 0" result="hardAlpha" />
			<feOffset dx="0.5" />
			<feGaussianBlur stdDeviation="6" />
			<feComposite in2="hardAlpha" operator="out" />
			<feColorMatrix type="matrix" values="0 0 0 0 0.160784 0 0 0 0 0.0470588 0 0 0 0 0.329412 0 0 0 0.2 0" />
			<feBlend mode="normal" in2="BackgroundImageFix" result="effect1_dropShadow_825_589" />
			<feBlend mode="normal" in="SourceGraphic" in2="effect1_dropShadow_825_589" result="shape" />
		</filter>
		<linearGradient id="paint0_linear_825_589" x1="113.457" y1="85.6856" x2="74.635" y2="15.5118" gradientUnits="userSpaceOnUse">
			<stop stop-color="#9900CC" />
			<stop offset="1" stop-color="#0066FF" />
		</linearGradient>
		<radialGradient id="paint1_radial_825_589" cx="0" cy="0" r="1" gradientUnits="userSpaceOnUse" gradientTransform="translate(46.6625 40.7776) rotate(50.1229) scale(71.8679 72.3998)">
			<stop stop-color="#FF00B1" />
			<stop offset="0.877569" stop-color="#C500D6" />
			<stop offset="1" stop-color="#AF00DE" />
		</radialGradient>
	</defs>
</svg>
