<?xml version="1.0" encoding="UTF-8"?>
<svg width="217px" height="65px" viewBox="0 0 217 65" version="1.1" xmlns="http://www.w3.org/2000/svg" xmlns:xlink="http://www.w3.org/1999/xlink">
    <title>* / Elements / LOGO@1.5x</title>
    <defs>
        <path d="M186.180046,0 C182.427834,0 179.14293,1.17931793 176.321408,3.5379538 L176.321408,3.5379538 C173.501849,5.89463391 171.724899,8.94364992 170.996447,12.6810903 L170.996447,12.6810903 L169.673061,19.8293607 L170.919871,18.3997066 C173.060066,16.3422564 175.151173,15.1003545 177.189266,14.6740007 L177.189266,14.6740007 C179.231286,14.247647 181.232074,14.0853196 183.197518,14.185063 L183.197518,14.185063 L184.253871,14.185063 L196.266448,14.185063 C198.178878,14.185063 199.627927,14.5370982 200.609668,15.2372571 L200.609668,15.2372571 C201.593372,15.9413275 202.227576,16.856619 202.518171,17.9850874 L202.518171,17.9850874 C202.806803,19.1135558 202.840182,20.3437233 202.610455,21.673634 L202.610455,21.673634 C202.310042,23.1541376 201.630678,24.0811637 200.574325,24.4566679 L200.574325,24.4566679 C199.516009,24.8321721 198.206367,24.9964552 196.643436,24.9456057 L196.643436,24.9456057 L176.888854,24.9456057 C174.520896,24.9964552 172.469058,25.7474636 170.731377,27.2044982 L170.731377,27.2044982 C168.99566,28.6595771 167.886293,30.5507884 167.407204,32.8859553 L167.407204,32.8859553 L161.893749,64 L166.160393,64 C169.054564,64 171.587455,63.0925315 173.753174,61.2736829 L173.753174,61.2736829 C175.918894,59.4548344 177.291367,57.1020658 177.870594,54.2173328 L177.870594,54.2173328 L180.552709,39.1306686 L197.815634,39.1306686 C202.423924,39.1306686 206.464768,37.681457 209.94013,34.7849896 L209.94013,34.7849896 C213.415491,31.8865664 215.606736,28.13348 216.513864,23.5159516 L216.513864,23.5159516 C216.76519,22.0334922 216.888889,20.5901479 216.888889,19.1859186 L216.888889,19.1859186 L216.888889,19.1370248 C216.881035,16.6160616 216.46674,14.2183107 215.644042,11.9457279 L215.644042,11.9457279 C214.359925,8.39799536 212.11763,5.51912969 208.919119,3.31304242 L208.919119,3.31304242 C205.720609,1.10499939 201.642459,0 196.682706,0 L196.682706,0 L186.180046,0 Z M137.489644,0.0391150226 C135.323924,0.0391150226 133.307429,0.58868109 131.446049,1.69368048 L131.446049,1.69368048 C129.580742,2.79867987 128.121876,4.31634275 127.063559,6.24666911 L127.063559,6.24666911 L95.7499642,63.9628407 L103.868958,63.9628407 C106.036641,63.9628407 108.045282,63.4113189 109.896845,62.3063195 L109.896845,62.3063195 C111.746444,61.2052316 113.19942,59.6875688 114.257736,57.7552866 L114.257736,57.7552866 L134.16547,20.3182985 L139.606276,48.2718494 L140.739205,54.3307664 C141.341993,57.1900746 142.726247,59.5115512 144.893931,61.2932404 L144.893931,61.2932404 C147.057687,63.072974 149.565052,63.9628407 152.410136,63.9628407 L152.410136,63.9628407 L156.790662,63.9628407 L144.742742,0.0391150226 L137.489644,0.0391150226 Z M71.6482347,0.0391150226 C68.7776255,0.0391150226 66.2604428,0.946583547 64.0947233,2.7654321 L64.0947233,2.7654321 C61.9290037,4.58428065 60.5565305,6.923359 59.9773036,9.78266716 L59.9773036,9.78266716 L52.8380866,50.1180785 C52.3099102,53.8535631 53.2013306,57.0961985 55.5182382,59.8440288 L55.5182382,59.8440288 C57.8371093,62.5899034 60.8314178,63.9628407 64.5090177,63.9628407 L64.5090177,63.9628407 L90.4603463,63.9628407 L90.4976525,63.6616551 C91.0277923,59.9261704 90.132445,56.683535 87.8155374,53.9357047 L87.8155374,53.9357047 C85.4986298,51.1898301 82.5023578,49.8168928 78.8247578,49.8168928 L78.8247578,49.8168928 L67.1165205,49.8168928 L69.2684957,37.587581 L77.8057112,37.587581 C80.6763204,37.587581 83.201357,36.6781567 85.3788575,34.8593082 L85.3788575,34.8593082 C87.5583214,33.0424154 88.9249042,30.6896467 89.4786058,27.8049138 L89.4786058,27.8049138 L90.2718521,23.402518 L71.8013862,23.402518 L73.425185,14.224178 L89.250842,14.224178 C92.1234147,14.224178 94.6464878,13.3147537 96.8259518,11.4959051 L96.8259518,11.4959051 C99.0034522,9.67705659 100.370035,7.32428798 100.9257,4.44151082 L100.9257,4.44151082 L101.716983,0.0391150226 L71.6482347,0.0391150226 Z M18.9562582,0.0391150226 C16.0876124,0.0391150226 13.5684663,0.946583547 11.4027467,2.7654321 L11.4027467,2.7654321 C9.23702717,4.58428065 7.86455394,6.923359 7.28532704,9.78266716 L7.28532704,9.78266716 L0.148073551,50.1180785 C-0.382066323,53.8535631 0.511317539,57.0961985 2.82822514,59.8440288 L2.82822514,59.8440288 C5.14513273,62.5899034 8.13944128,63.9628407 11.8170412,63.9628407 L11.8170412,63.9628407 L48.5714423,63.9628407 L48.610712,63.6616551 C49.1369249,59.9261704 48.2494315,56.683535 45.9482317,53.9357047 L45.9482317,53.9357047 C43.6411415,51.1898301 40.638979,49.8168928 36.9378173,49.8168928 L36.9378173,49.8168928 L14.424544,49.8168928 L23.2248659,0.0391150226 L18.9562582,0.0391150226 Z" id="path-1"></path>
        <linearGradient x1="-0.000530689294%" y1="49.9998151%" x2="99.9996528%" y2="49.9998151%" id="linearGradient-3">
            <stop stop-color="#FF00AC" offset="0%"></stop>
            <stop stop-color="#9900D8" offset="100%"></stop>
        </linearGradient>
    </defs>
    <g id="Splash-Screen" stroke="none" stroke-width="1" fill="none" fill-rule="evenodd">
        <g id="Image-Copy" transform="translate(-68.159084, -96.541711)">
            <g id="*-/-Elements-/-LOGO" transform="translate(68.245323, 97.000000)">
                <mask id="mask-2" fill="white">
                    <use xlink:href="#path-1"></use>
                </mask>
                <g id="Clip-2"></g>
                <path d="M186.180046,0 C182.427834,0 179.14293,1.17931793 176.321408,3.5379538 L176.321408,3.5379538 C173.501849,5.89463391 171.724899,8.94364992 170.996447,12.6810903 L170.996447,12.6810903 L169.673061,19.8293607 L170.919871,18.3997066 C173.060066,16.3422564 175.151173,15.1003545 177.189266,14.6740007 L177.189266,14.6740007 C179.231286,14.247647 181.232074,14.0853196 183.197518,14.185063 L183.197518,14.185063 L184.253871,14.185063 L196.266448,14.185063 C198.178878,14.185063 199.627927,14.5370982 200.609668,15.2372571 L200.609668,15.2372571 C201.593372,15.9413275 202.227576,16.856619 202.518171,17.9850874 L202.518171,17.9850874 C202.806803,19.1135558 202.840182,20.3437233 202.610455,21.673634 L202.610455,21.673634 C202.310042,23.1541376 201.630678,24.0811637 200.574325,24.4566679 L200.574325,24.4566679 C199.516009,24.8321721 198.206367,24.9964552 196.643436,24.9456057 L196.643436,24.9456057 L176.888854,24.9456057 C174.520896,24.9964552 172.469058,25.7474636 170.731377,27.2044982 L170.731377,27.2044982 C168.99566,28.6595771 167.886293,30.5507884 167.407204,32.8859553 L167.407204,32.8859553 L161.893749,64 L166.160393,64 C169.054564,64 171.587455,63.0925315 173.753174,61.2736829 L173.753174,61.2736829 C175.918894,59.4548344 177.291367,57.1020658 177.870594,54.2173328 L177.870594,54.2173328 L180.552709,39.1306686 L197.815634,39.1306686 C202.423924,39.1306686 206.464768,37.681457 209.94013,34.7849896 L209.94013,34.7849896 C213.415491,31.8865664 215.606736,28.13348 216.513864,23.5159516 L216.513864,23.5159516 C216.76519,22.0334922 216.888889,20.5901479 216.888889,19.1859186 L216.888889,19.1859186 L216.888889,19.1370248 C216.881035,16.6160616 216.46674,14.2183107 215.644042,11.9457279 L215.644042,11.9457279 C214.359925,8.39799536 212.11763,5.51912969 208.919119,3.31304242 L208.919119,3.31304242 C205.720609,1.10499939 201.642459,0 196.682706,0 L196.682706,0 L186.180046,0 Z M137.489644,0.0391150226 C135.323924,0.0391150226 133.307429,0.58868109 131.446049,1.69368048 L131.446049,1.69368048 C129.580742,2.79867987 128.121876,4.31634275 127.063559,6.24666911 L127.063559,6.24666911 L95.7499642,63.9628407 L103.868958,63.9628407 C106.036641,63.9628407 108.045282,63.4113189 109.896845,62.3063195 L109.896845,62.3063195 C111.746444,61.2052316 113.19942,59.6875688 114.257736,57.7552866 L114.257736,57.7552866 L134.16547,20.3182985 L139.606276,48.2718494 L140.739205,54.3307664 C141.341993,57.1900746 142.726247,59.5115512 144.893931,61.2932404 L144.893931,61.2932404 C147.057687,63.072974 149.565052,63.9628407 152.410136,63.9628407 L152.410136,63.9628407 L156.790662,63.9628407 L144.742742,0.0391150226 L137.489644,0.0391150226 Z M71.6482347,0.0391150226 C68.7776255,0.0391150226 66.2604428,0.946583547 64.0947233,2.7654321 L64.0947233,2.7654321 C61.9290037,4.58428065 60.5565305,6.923359 59.9773036,9.78266716 L59.9773036,9.78266716 L52.8380866,50.1180785 C52.3099102,53.8535631 53.2013306,57.0961985 55.5182382,59.8440288 L55.5182382,59.8440288 C57.8371093,62.5899034 60.8314178,63.9628407 64.5090177,63.9628407 L64.5090177,63.9628407 L90.4603463,63.9628407 L90.4976525,63.6616551 C91.0277923,59.9261704 90.132445,56.683535 87.8155374,53.9357047 L87.8155374,53.9357047 C85.4986298,51.1898301 82.5023578,49.8168928 78.8247578,49.8168928 L78.8247578,49.8168928 L67.1165205,49.8168928 L69.2684957,37.587581 L77.8057112,37.587581 C80.6763204,37.587581 83.201357,36.6781567 85.3788575,34.8593082 L85.3788575,34.8593082 C87.5583214,33.0424154 88.9249042,30.6896467 89.4786058,27.8049138 L89.4786058,27.8049138 L90.2718521,23.402518 L71.8013862,23.402518 L73.425185,14.224178 L89.250842,14.224178 C92.1234147,14.224178 94.6464878,13.3147537 96.8259518,11.4959051 L96.8259518,11.4959051 C99.0034522,9.67705659 100.370035,7.32428798 100.9257,4.44151082 L100.9257,4.44151082 L101.716983,0.0391150226 L71.6482347,0.0391150226 Z M18.9562582,0.0391150226 C16.0876124,0.0391150226 13.5684663,0.946583547 11.4027467,2.7654321 L11.4027467,2.7654321 C9.23702717,4.58428065 7.86455394,6.923359 7.28532704,9.78266716 L7.28532704,9.78266716 L0.148073551,50.1180785 C-0.382066323,53.8535631 0.511317539,57.0961985 2.82822514,59.8440288 L2.82822514,59.8440288 C5.14513273,62.5899034 8.13944128,63.9628407 11.8170412,63.9628407 L11.8170412,63.9628407 L48.5714423,63.9628407 L48.610712,63.6616551 C49.1369249,59.9261704 48.2494315,56.683535 45.9482317,53.9357047 L45.9482317,53.9357047 C43.6411415,51.1898301 40.638979,49.8168928 36.9378173,49.8168928 L36.9378173,49.8168928 L14.424544,49.8168928 L23.2248659,0.0391150226 L18.9562582,0.0391150226 Z" id="Fill-1" fill="url(#linearGradient-3)" mask="url(#mask-2)"></path>
            </g>
        </g>
    </g>
</svg>