<?xml version="1.0" encoding="UTF-8"?>
<svg width="21px" height="20px" viewBox="0 0 21 20" version="1.1" xmlns="http://www.w3.org/2000/svg" xmlns:xlink="http://www.w3.org/1999/xlink">
    <title>6F44356F-2933-4D3B-B796-01B670C7CF1B@2x</title>
    <defs>
        <filter color-interpolation-filters="auto" id="filter-1">
            <feColorMatrix in="SourceGraphic" type="matrix" values="0 0 0 0 1.000000 0 0 0 0 1.000000 0 0 0 0 1.000000 0 0 0 1.000000 0"></feColorMatrix>
        </filter>
    </defs>
    <g id="Full-sign-up:-Talent" stroke="currentColor" stroke-width="1" fill="none" fill-rule="evenodd">
        <g id="Full-sign-up:-Talent-3-2" transform="translate(-24.000000, -628.000000)">
            <g id="Backdrop" transform="translate(0.000000, 566.000000)">
                <g id="*-/-Elements-/-Backdrop-/-Item-1" transform="translate(0.000000, 48.000000)">
                    <g id="Iconly/Light/Gender-male" transform="translate(24.000000, 14.000000)" filter="url(#filter-1)">
                        <g>
                            <path d="M10.5325035,1.66666667 C13.5880207,1.66666667 16.0650069,4.14365284 16.0650069,7.19917012 C16.0650069,10.0133353 13.9638752,12.3367549 11.2447953,12.6862456 L11.244,16.0916667 L12.2384409,15.0984088 C12.4815059,14.8553439 12.8755919,14.8553439 13.1186569,15.0984088 C13.3617218,15.3414737 13.3617218,15.7355598 13.1186569,15.9786247 L11.1051334,17.9929105 C10.9910048,18.1329537 10.8171506,18.2223932 10.6224066,18.2223932 C10.489709,18.2223932 10.3667105,18.1808665 10.2656976,18.1100995 C10.2350296,18.0880218 10.2048605,18.0631362 10.1767161,18.0349919 L10.2513699,18.0997566 C10.2310336,18.0846338 10.2116519,18.0682992 10.1933319,18.0508595 L10.1767161,18.0349919 L8.122879,15.9811547 C7.87981409,15.7380898 7.87981409,15.3440037 8.122879,15.1009388 C8.36594391,14.8578739 8.76003,14.8578739 9.00309491,15.1009388 L9.00309491,15.1009388 L9.999,16.0966667 L9.99892205,12.7062742 C7.19374838,12.4378323 5,10.0746899 5,7.19917012 C5,4.14365284 7.47698617,1.66666667 10.5325035,1.66666667 Z M10.5325035,2.91147994 C8.16447756,2.91147994 6.24481328,4.83114423 6.24481328,7.19917012 C6.24481328,9.56719602 8.16447756,11.4868603 10.5325035,11.4868603 C12.9005294,11.4868603 14.8201936,9.56719602 14.8201936,7.19917012 C14.8201936,4.83114423 12.9005294,2.91147994 10.5325035,2.91147994 Z" id="Combined-Shape" fill="#200E32" transform="translate(10.532503, 9.944530) rotate(-135.000000) translate(-10.532503, -9.944530) "></path>
                        </g>
                    </g>
                </g>
            </g>
        </g>
    </g>
</svg>