<?xml version="1.0" encoding="UTF-8"?>
<svg width="16px" height="16px" viewBox="0 0 16 16" version="1.1" xmlns="http://www.w3.org/2000/svg" xmlns:xlink="http://www.w3.org/1999/xlink">
    <title>FE1CCBEB-5264-439D-8903-8406CB1A5CE4@2x</title>
    <defs>
        <filter color-interpolation-filters="auto" id="filter-1">
            <feColorMatrix in="SourceGraphic" type="matrix" values="0 0 0 0 1.000000 0 0 0 0 1.000000 0 0 0 0 1.000000 0 0 0 0.600000 0"></feColorMatrix>
        </filter>
    </defs>
    <g id="Login" stroke="none" stroke-width="1" fill="none" fill-rule="evenodd" stroke-linecap="round" stroke-linejoin="round">
        <g id="Log-in---By-Phone-2-1" transform="translate(-52.000000, -308.000000)">
            <g id="Buttons-/-Contained-/-With-Icon-/-Enabled-/-Border-/-40H" transform="translate(40.000000, 296.000000)">
                <g id="Stroke-2" transform="translate(12.000000, 12.000000)" filter="url(#filter-1)">
                    <g transform="translate(2.666667, 2.666667)">
                        <path d="M4.75376004,6.27966667 C3.97376004,5.49966667 3.38576004,4.62633333 2.99509337,3.74033333 C2.91242671,3.55366667 2.96176004,3.33433333 3.10576004,3.18966667 L3.65176004,2.64366667 C4.09976004,2.19633333 4.09909337,1.56366667 3.70842671,1.173 L2.92642671,0.391 C2.40576004,-0.130333333 1.56109337,-0.130333333 1.04042671,0.391 L0.605760041,0.825 C0.111760041,1.319 -0.0935732928,2.03166667 0.0397600406,2.73833333 C0.368426707,4.48033333 1.38042671,6.38766667 3.01376004,8.02033333 C4.64642671,9.653 6.55309337,10.665 8.29509337,10.9943333 C9.00176004,11.1276667 9.71442671,10.9216667 10.2090934,10.4276667 L10.6430934,9.993 C11.16376,9.47233333 11.16376,8.62833333 10.6430934,8.10766667 L9.86042671,7.325 C9.46976004,6.935 8.83709337,6.935 8.44642671,7.32566667 L7.84442671,7.92766667 C7.69976004,8.07233333 7.48042671,8.121 7.29309337,8.03833333 C6.40709337,7.64766667 5.53376004,7.05966667 4.75376004,6.27966667 Z" id="Stroke-1" stroke="currentColor"></path>
                    </g>
                </g>
            </g>
        </g>
    </g>
</svg>