<svg width="31" height="31" viewBox="0 0 31 31" fill="none" xmlns="http://www.w3.org/2000/svg">
<g filter="url(#filter0_b_9139_5228)">
<circle cx="15.1602" cy="15.4531" r="15" fill="#290C54" fill-opacity="0.6"/>
</g>
<path fill-rule="evenodd" clip-rule="evenodd" d="M13.1599 15.4533C13.1599 16.558 12.2644 17.4535 11.1597 17.4535C10.0557 17.4535 9.16016 16.558 9.16016 15.4533C9.16016 14.3485 10.0557 13.453 11.1597 13.453C12.2644 13.453 13.1599 14.3485 13.1599 15.4533Z" stroke="white" stroke-width="1.5" stroke-linecap="round" stroke-linejoin="round"/>
<path fill-rule="evenodd" clip-rule="evenodd" d="M21.1599 11.4534C21.1599 12.5581 20.2644 13.4536 19.1597 13.4536C18.0557 13.4536 17.1602 12.5581 17.1602 11.4534C17.1602 10.3486 18.0557 9.45312 19.1597 9.45312C20.2644 9.45312 21.1599 10.3486 21.1599 11.4534Z" stroke="white" stroke-width="1.5" stroke-linecap="round" stroke-linejoin="round"/>
<path fill-rule="evenodd" clip-rule="evenodd" d="M21.1599 19.4533C21.1599 18.3486 20.2644 17.4531 19.1597 17.4531C18.0557 17.4531 17.1602 18.3486 17.1602 19.4533C17.1602 20.5581 18.0557 21.4536 19.1597 21.4536C20.2644 21.4536 21.1599 20.5581 21.1599 19.4533Z" stroke="white" stroke-width="1.5" stroke-linecap="round" stroke-linejoin="round"/>
<path d="M12.9414 14.5624L17.3784 12.3439" stroke="white" stroke-width="1.5" stroke-linecap="round" stroke-linejoin="round"/>
<path d="M12.9414 16.3442L17.3784 18.5627" stroke="white" stroke-width="1.5" stroke-linecap="round" stroke-linejoin="round"/>
<defs>
<filter id="filter0_b_9139_5228" x="-7.99469" y="-7.70172" width="46.3097" height="46.3097" filterUnits="userSpaceOnUse" color-interpolation-filters="sRGB">
<feFlood flood-opacity="0" result="BackgroundImageFix"/>
<feGaussianBlur in="BackgroundImageFix" stdDeviation="4.07742"/>
<feComposite in2="SourceAlpha" operator="in" result="effect1_backgroundBlur_9139_5228"/>
<feBlend mode="normal" in="SourceGraphic" in2="effect1_backgroundBlur_9139_5228" result="shape"/>
</filter>
</defs>
</svg>
