<?xml version="1.0" encoding="UTF-8"?>
<svg width="30px" height="30px" viewBox="0 0 30 30" version="1.1" xmlns="http://www.w3.org/2000/svg" xmlns:xlink="http://www.w3.org/1999/xlink">
    <title>657A7F38-59B7-42DE-9912-5F363A2161C0@1.5x</title>
    <defs>
        <filter color-interpolation-filters="auto" id="filter-1">
            <feColorMatrix in="SourceGraphic" type="matrix" values="0 0 0 0 1.000000 0 0 0 0 1.000000 0 0 0 0 1.000000 0 0 0 1.000000 0"></feColorMatrix>
        </filter>
    </defs>
    <g id="Feed" stroke="none" stroke-width="1" fill="none" fill-rule="evenodd">
        <g id="Feed-1-1" transform="translate(-274.000000, -464.000000)">
            <g id="Main-Area" transform="translate(0.000000, 138.000000)">
                <g id="Bars-/-Social-Actions-/-2" transform="translate(271.000000, 152.000000)">
                    <g id="Buttons-/-Actions-Bar" transform="translate(3.000000, 174.000000)">
                        <circle id="*-/-Elements-/-Avatar-/-Pic-Copy" fill-opacity="0.6" fill="currentColor" cx="15" cy="15" r="15"></circle>
                        <g id="Group" transform="translate(6.000000, 6.000000)" stroke-linecap="round" stroke-linejoin="round">
                            <g id="Group-43" filter="url(#filter-1)">
                                <g transform="translate(3.000000, 3.000000)">
                                    <path d="M3.99975,6.00015 C3.99975,7.1049 3.10425,8.0004 1.9995,8.0004 C0.8955,8.0004 0,7.1049 0,6.00015 C0,4.8954 0.8955,3.9999 1.9995,3.9999 C3.10425,3.9999 3.99975,4.8954 3.99975,6.00015 Z" id="Stroke-5" stroke="#fff" stroke-width="1.125"></path>
                                    <path d="M11.999625,2.00025 C11.999625,3.105 11.104125,4.0005 9.999375,4.0005 C8.895375,4.0005 7.999875,3.105 7.999875,2.00025 C7.999875,0.8955 8.895375,0 9.999375,0 C11.104125,0 11.999625,0.8955 11.999625,2.00025 Z" id="Stroke-7" stroke="#fff" stroke-width="1.125"></path>
                                    <path d="M11.999625,10.0002 C11.999625,8.89545 11.104125,7.99995 9.999375,7.99995 C8.895375,7.99995 7.999875,8.89545 7.999875,10.0002 C7.999875,11.10495 8.895375,12.00045 9.999375,12.00045 C11.104125,12.00045 11.999625,11.10495 11.999625,10.0002 Z" id="Stroke-9" stroke="#fff" stroke-width="1.125"></path>
                                    <line x1="3.7815" y1="5.1093" x2="8.2185" y2="2.8908" id="Stroke-11" stroke="#fff" stroke-width="1.125"></line>
                                    <line x1="3.7815" y1="6.891075" x2="8.2185" y2="9.109575" id="Stroke-13" stroke="#fff" stroke-width="1.125"></line>
                                </g>
                            </g>
                        </g>
                    </g>
                </g>
            </g>
        </g>
    </g>
</svg>