<svg width="30" height="32" viewBox="0 0 30 32" fill="none" xmlns="http://www.w3.org/2000/svg">
<g filter="url(#filter0_b_2681_11980)">
<circle cx="15" cy="16" r="15" fill="none" fill-opacity="0.5"/>
</g>
<path d="M17.3933 17.9502L17.5706 17.6177C18.318 16.2168 19.722 15.6143 21 16.1468" stroke="white" stroke-width="1.5" stroke-linecap="round" stroke-linejoin="round"/>
<path d="M13.7097 16.6253L14.5077 11.6387L15.3811 12.1845C15.7064 12.3878 16.1024 12.2562 16.3037 11.8778L17.0651 10.4503C17.2557 10.092 17.2184 9.61615 16.9751 9.31282L16.0151 8.11199C15.5697 7.55615 14.8591 7.51532 14.3757 8.01949C12.1044 10.3853 10.4057 13.4953 9.47107 17.0012L9.07441 18.4895C8.87374 19.2412 9.08841 20.0678 9.60441 20.5278L10.6257 21.4395C12.5951 23.1987 15.1457 23.5828 17.3931 22.4587L18.1144 24.262" stroke="white" stroke-width="1.5" stroke-linecap="round" stroke-linejoin="round"/>
<path d="M17.3933 17.0485V17.0485C16.0826 15.956 14.376 15.956 13.0653 17.0485" stroke="white" stroke-width="1.5" stroke-linecap="round" stroke-linejoin="round"/>
<defs>
<filter id="filter0_b_2681_11980" x="-8.15485" y="-7.15485" width="46.3097" height="46.3097" filterUnits="userSpaceOnUse" color-interpolation-filters="sRGB">
<feFlood flood-opacity="0" result="BackgroundImageFix"/>
<feGaussianBlur in="BackgroundImage" stdDeviation="4.07742"/>
<feComposite in2="SourceAlpha" operator="in" result="effect1_backgroundBlur_2681_11980"/>
<feBlend mode="normal" in="SourceGraphic" in2="effect1_backgroundBlur_2681_11980" result="shape"/>
</filter>
</defs>
</svg>
