<svg width="30" height="24" viewBox="0 0 40 34" fill="none" xmlns="http://www.w3.org/2000/svg">
<path d="M5.129 16.289L5.129 16.289C3.37803 9.09302 4.00624 5.01807 4.0329 4.84514L4.03295 4.84481L4.2503 3.52096L5.52081 3.13124C5.53009 3.1294 5.53909 3.12736 5.54677 3.12554C5.56456 3.12132 5.58652 3.11562 5.61124 3.109C5.66121 3.09562 5.73261 3.07572 5.82591 3.04955C5.8592 3.04021 5.89548 3.03002 5.93484 3.01896C6.11732 2.96769 6.36618 2.89777 6.69216 2.80771C7.48441 2.58883 8.73222 2.25097 10.5799 1.77552C14.4978 0.788165 16.2958 0.419866 16.3821 0.403437L16.3837 0.403111L16.808 0.319856L17.2322 0.40311L17.2612 0.408803H17.2722C17.2729 0.408923 17.2736 0.40905 17.2744 0.409184C17.2891 0.411661 17.3116 0.415775 17.3428 0.421847C17.4048 0.433915 17.4955 0.452577 17.6161 0.478452C17.8569 0.530137 18.2132 0.609798 18.6902 0.721179C19.6441 0.943902 21.0788 1.29299 23.035 1.79783L23.0352 1.79788C24.8743 2.27117 26.1224 2.6091 26.917 2.82858C27.2415 2.91821 27.4903 2.98807 27.6737 3.03954C27.7149 3.05112 27.7528 3.06176 27.7875 3.07149C27.8815 3.09784 27.9536 3.1179 28.004 3.13139C28.0289 3.13807 28.051 3.1438 28.0689 3.14804C28.0767 3.14988 28.0857 3.15194 28.0951 3.15379L29.3656 3.54352L29.5827 4.86582L29.583 4.8677C29.6097 5.04061 30.2379 9.11548 28.487 16.3113C26.8889 22.8583 21.5747 26.8179 17.4843 28.2375L17.4823 28.2382L16.8068 28.4778L16.114 28.2377C16.1139 28.2376 16.1139 28.2376 16.1139 28.2376C12.0415 26.818 6.72713 22.8586 5.129 16.289ZM8.38612 6.78195L8.15738 6.84384L8.16149 7.08076C8.20936 9.84479 8.5819 12.5936 9.27143 15.2707C10.365 19.7667 13.7915 22.6272 16.6867 23.8858L16.8079 23.9385L16.929 23.8859C19.8285 22.6274 23.2511 19.7669 24.322 15.2837C25.0135 12.6071 25.3846 9.85787 25.4274 7.09374L25.431 6.85726L25.2027 6.79548C24.4354 6.58786 23.3964 6.30777 21.9511 5.94193C19.358 5.2537 17.7111 4.87077 16.9175 4.68623L16.8768 4.67678L16.81 4.66123L16.7429 4.67591C15.9763 4.84375 14.3032 5.22815 11.6426 5.91476L11.6426 5.91476L11.6402 5.91539C11.0622 6.06954 10.5425 6.20741 10.0778 6.33072C9.40132 6.5102 8.8411 6.65883 8.38612 6.78195Z" fill="white" stroke="#290C54" stroke-width="0.608212"/>
<path d="M16.8078 27.2931L16.4784 27.1803C12.6749 25.8718 7.7074 22.1631 6.21398 16.027C4.49948 9.03363 5.10858 5.18953 5.13565 5.02711L5.23942 4.39996L5.85303 4.21949C5.90717 4.21949 7.20659 3.82244 10.8612 2.86593C14.7414 1.8643 16.5371 1.51238 16.6093 1.48531L16.8123 1.4447L17.0108 1.48531C17.0875 1.48531 18.8787 1.8643 22.7634 2.86593C26.418 3.80891 27.7265 4.1879 27.7671 4.21949L28.3807 4.39996L28.4844 5.02711C28.5115 5.18953 29.1071 9.03363 27.4061 16.027C25.9082 22.1631 20.9406 25.8718 17.1326 27.1803L16.8078 27.2931ZM7.08025 5.97911C6.99904 7.27852 6.97648 10.5631 8.18566 15.5487C9.46251 20.7103 13.5232 23.9227 16.8078 25.1409C20.0789 23.9227 24.1711 20.7103 25.4299 15.5487C26.6391 10.5857 26.6165 7.27852 26.5353 5.97911C25.8179 5.78059 24.4644 5.41513 22.2491 4.84663C19.1494 4.0706 17.3718 3.65551 16.8078 3.53369C16.2303 3.65551 14.4661 4.0706 11.3665 4.84663C9.14668 5.42415 7.79764 5.78059 7.08025 5.97911Z" fill="#290C54"/>
<path d="M16.8075 2.49597C16.8075 2.49597 18.6123 2.85692 22.5015 3.84953C26.1877 4.79701 27.4645 5.17601 27.4645 5.17601C27.4645 5.17601 28.0872 8.91182 26.4133 15.8014C25.0597 21.3465 20.6426 24.9153 16.8075 26.2373C12.9725 24.9018 8.55989 21.3329 7.20634 15.8014C5.52793 8.91182 6.13703 5.18954 6.13703 5.18954C6.13703 5.18954 7.42742 4.81055 11.1001 3.86306C15.0118 2.85692 16.8075 2.49597 16.8075 2.49597Z" fill="url(#paint0_linear_552_5171)"/>
<g filter="url(#filter0_d_552_5171)">
<path fill-rule="evenodd" clip-rule="evenodd" d="M17.1433 13.74L13.3849 22.4756H7.85075L0.824219 6.3606H6.98021L10.6178 15.587L14.1622 6.3606H20.3182L18.8547 9.76222C20.0245 8.71494 21.7568 8.073 23.9367 8.073C26.4532 8.073 28.8752 8.97863 30.7311 10.1966L28.6865 13.8816C27.3339 13.0071 25.4781 12.164 23.9367 12.164C23.0875 12.164 22.5213 12.6012 22.5213 13.0696C22.5213 13.5401 23.0894 13.6672 24.357 13.9508C24.5199 13.9873 24.6942 14.0263 24.8804 14.0689C27.8372 14.7247 31.2344 15.6928 31.2344 19.5027C31.2344 22.8442 28.5607 24.9678 24.1569 24.9678C21.326 24.9678 18.4006 24.0621 16.4189 22.5319L18.6837 18.8782C20.2565 19.9712 22.5842 20.7831 24.3142 20.7831C25.4466 20.7831 25.8555 20.5021 25.8555 19.9712C25.8555 19.409 24.9119 19.0968 23.402 18.7845C20.4734 18.1659 17.2054 17.4553 17.1433 13.74Z" fill="white"/>
<path d="M13.3849 22.4756V22.9318C13.5672 22.9318 13.7319 22.8233 13.804 22.6559L13.3849 22.4756ZM17.1433 13.74L17.5994 13.7323C17.5958 13.5174 17.4426 13.3341 17.2316 13.2924C17.0207 13.2508 16.8093 13.3622 16.7243 13.5597L17.1433 13.74ZM7.85075 22.4756L7.43262 22.6579C7.50513 22.8242 7.66932 22.9318 7.85075 22.9318V22.4756ZM0.824219 6.3606V5.90444C0.670376 5.90444 0.526897 5.98198 0.442612 6.11068C0.358327 6.23938 0.344591 6.40189 0.406079 6.54291L0.824219 6.3606ZM6.98021 6.3606L7.40458 6.19328C7.33586 6.01899 7.16756 5.90444 6.98021 5.90444V6.3606ZM10.6178 15.587L10.1935 15.7543C10.2625 15.9293 10.4318 16.044 10.6198 16.0431C10.8079 16.0423 10.9762 15.9261 11.0437 15.7506L10.6178 15.587ZM14.1622 6.3606V5.90444C13.9734 5.90444 13.8041 6.02076 13.7364 6.19702L14.1622 6.3606ZM20.3182 6.3606L20.7372 6.54087C20.7979 6.39992 20.7836 6.23792 20.6992 6.10975C20.6148 5.98159 20.4716 5.90444 20.3182 5.90444V6.3606ZM18.8547 9.76222L18.4357 9.58194C18.3511 9.77857 18.4146 10.0076 18.5884 10.1326C18.7622 10.2575 18.9995 10.2449 19.159 10.1021L18.8547 9.76222ZM30.7311 10.1966L31.13 10.4179C31.2458 10.209 31.181 9.94621 30.9814 9.81519L30.7311 10.1966ZM28.6865 13.8816L28.4388 14.2646C28.5449 14.3332 28.6747 14.3547 28.7972 14.3241C28.9197 14.2934 29.0241 14.2133 29.0854 14.1029L28.6865 13.8816ZM24.357 13.9508L24.4566 13.5057L24.4566 13.5057L24.357 13.9508ZM24.8804 14.0689L24.7785 14.5136L24.7816 14.5143L24.8804 14.0689ZM16.4189 22.5319L16.0312 22.2916C15.908 22.4903 15.9551 22.7501 16.1402 22.893L16.4189 22.5319ZM18.6837 18.8782L18.944 18.5036C18.8413 18.4322 18.7137 18.4061 18.5912 18.4315C18.4687 18.4569 18.3619 18.5315 18.296 18.6378L18.6837 18.8782ZM23.402 18.7845L23.3077 19.2308L23.3096 19.2312L23.402 18.7845ZM13.804 22.6559L17.5623 13.9203L16.7243 13.5597L12.9659 22.2953L13.804 22.6559ZM7.85075 22.9318H13.3849V22.0195H7.85075V22.9318ZM0.406079 6.54291L7.43262 22.6579L8.26889 22.2933L1.24236 6.17828L0.406079 6.54291ZM6.98021 5.90444H0.824219V6.81675H6.98021V5.90444ZM11.0422 15.4197L7.40458 6.19328L6.55584 6.52791L10.1935 15.7543L11.0422 15.4197ZM13.7364 6.19702L10.192 15.4234L11.0437 15.7506L14.588 6.52418L13.7364 6.19702ZM20.3182 5.90444H14.1622V6.81675H20.3182V5.90444ZM19.2737 9.9425L20.7372 6.54087L19.8992 6.18032L18.4357 9.58194L19.2737 9.9425ZM23.9367 7.61684C21.6687 7.61684 19.8203 8.28549 18.5504 9.42236L19.159 10.1021C20.2287 9.14438 21.8449 8.52916 23.9367 8.52916V7.61684ZM30.9814 9.81519C29.0662 8.55836 26.5586 7.61684 23.9367 7.61684V8.52916C26.3478 8.52916 28.6842 9.3989 30.4808 10.5779L30.9814 9.81519ZM29.0854 14.1029L31.13 10.4179L30.3322 9.97524L28.2876 13.6602L29.0854 14.1029ZM23.9367 12.6201C25.3451 12.6201 27.1098 13.4054 28.4388 14.2646L28.9341 13.4985C27.5581 12.6089 25.611 11.7078 23.9367 11.7078V12.6201ZM22.9774 13.0696C22.9774 13.0305 23.0027 12.9297 23.1664 12.8188C23.3261 12.7105 23.587 12.6201 23.9367 12.6201V11.7078C23.4373 11.7078 22.9904 11.836 22.6546 12.0635C22.3229 12.2883 22.0651 12.6403 22.0651 13.0696H22.9774ZM24.4566 13.5057C23.8028 13.3594 23.3938 13.266 23.1402 13.1596C23.0182 13.1084 22.9792 13.0723 22.9713 13.0635C22.9698 13.0618 22.9734 13.0657 22.9764 13.0737C22.9791 13.0811 22.9774 13.0817 22.9774 13.0696H22.0651C22.0651 13.2917 22.1369 13.4973 22.2883 13.6683C22.4266 13.8245 22.6088 13.9261 22.7873 14.0009C23.1347 14.1466 23.6436 14.2586 24.2574 14.396L24.4566 13.5057ZM24.9823 13.6243C24.7948 13.5813 24.6193 13.5421 24.4566 13.5057L24.2574 14.396C24.4204 14.4324 24.5936 14.4712 24.7785 14.5136L24.9823 13.6243ZM31.6905 19.5027C31.6905 17.4271 30.749 16.0965 29.4165 15.2217C28.1189 14.3698 26.4523 13.9503 24.9792 13.6236L24.7816 14.5143C26.2653 14.8433 27.7756 15.2358 28.9158 15.9844C30.0212 16.71 30.7782 17.7684 30.7782 19.5027H31.6905ZM24.1569 25.4239C26.4262 25.4239 28.3049 24.8773 29.6272 23.8483C30.962 22.8095 31.6905 21.3079 31.6905 19.5027H30.7782C30.7782 21.0391 30.1699 22.27 29.0669 23.1283C27.9514 23.9965 26.2914 24.5116 24.1569 24.5116V25.4239ZM16.1402 22.893C18.214 24.4943 21.2418 25.4239 24.1569 25.4239V24.5116C21.4101 24.5116 18.5873 23.6299 16.6977 22.1709L16.1402 22.893ZM18.296 18.6378L16.0312 22.2916L16.8067 22.7723L19.0714 19.1185L18.296 18.6378ZM24.3142 20.327C22.6927 20.327 20.4542 19.5531 18.944 18.5036L18.4234 19.2527C20.0588 20.3893 22.4756 21.2393 24.3142 21.2393V20.327ZM25.3994 19.9712C25.3994 20.0451 25.3854 20.082 25.375 20.1007C25.3658 20.1174 25.3455 20.1452 25.2865 20.1783C25.1486 20.2556 24.8617 20.327 24.3142 20.327V21.2393C24.8991 21.2393 25.3828 21.1701 25.7325 20.9741C25.9173 20.8706 26.07 20.7287 26.1728 20.5433C26.2745 20.36 26.3117 20.1627 26.3117 19.9712H25.3994ZM23.3096 19.2312C24.0645 19.3873 24.635 19.5357 25.0108 19.7015C25.1984 19.7842 25.3053 19.8578 25.3603 19.9134C25.3856 19.939 25.3944 19.9553 25.3971 19.9611C25.399 19.9654 25.3994 19.9672 25.3994 19.9712H26.3117C26.3117 19.3861 25.8145 19.0589 25.3791 18.8668C24.9056 18.6579 24.2493 18.4939 23.4944 18.3378L23.3096 19.2312ZM16.6872 13.7476C16.7039 14.7456 16.9371 15.5675 17.3449 16.2441C17.7519 16.9193 18.3175 17.4247 18.9619 17.814C20.2312 18.5807 21.8617 18.9253 23.3077 19.2308L23.4963 18.3382C22.0137 18.025 20.546 17.705 19.4336 17.0331C18.8871 16.7029 18.441 16.2954 18.1263 15.7731C17.8123 15.2522 17.6138 14.592 17.5994 13.7323L16.6872 13.7476Z" fill="#290C54"/>
</g>
<defs>
<filter id="filter0_d_552_5171" x="0.368164" y="5.90442" width="39.229" height="27.4263" filterUnits="userSpaceOnUse" color-interpolation-filters="sRGB">
<feFlood flood-opacity="0" result="BackgroundImageFix"/>
<feOffset dx="5.47391" dy="5.47391"/>
<feGaussianBlur stdDeviation="1.21642"/>
<feColorMatrix type="matrix" values="0 0 0 0 0.160784 0 0 0 0 0.0470588 0 0 0 0 0.329412 0 0 0 0.5 0"/>
<feBlend mode="normal" in2="BackgroundImageFix" result="effect1_dropShadow_552_5171"/>
<feBlend mode="normal" in="SourceGraphic" in2="effect1_dropShadow_552_5171" result="shape"/>
</filter>
<linearGradient id="paint0_linear_552_5171" x1="27.5778" y1="2.49597" x2="6.0293" y2="2.49597" gradientUnits="userSpaceOnUse">
<stop stop-color="#FF00AC"/>
<stop offset="1" stop-color="#9900D9"/>
</linearGradient>
</defs>
</svg>
